<svg width="275" height="109" viewBox="0 0 275 109" fill="none" xmlns="http://www.w3.org/2000/svg">
<g clip-path="url(#clip0_743_787)">
<path d="M3.78203e-05 95.6601C3.78203e-05 94.7559 0.718971 94.0415 1.62883 94.0415H6.0485C9.57952 94.0415 11.7151 96.1215 11.7151 99.1268V99.169C11.7151 102.572 9.05152 104.336 5.73264 104.336H3.25527V107.257C3.25527 108.161 2.53634 108.876 1.62648 108.876C0.716613 108.876 -0.00231934 108.161 -0.00231934 107.257V95.6601H3.78203e-05ZM5.834 101.457C7.46279 101.457 8.41273 100.49 8.41273 99.2299V99.1877C8.41273 97.7378 7.39679 96.9601 5.77036 96.9601H3.25527V101.455H5.834V101.457Z" fill="white"/>
<path d="M17.1459 97.0257H14.018C13.193 97.0257 12.5165 96.3534 12.5165 95.5336C12.5165 94.7138 13.193 94.0415 14.018 94.0415H23.5315C24.3565 94.0415 25.033 94.7138 25.033 95.5336C25.033 96.3534 24.3565 97.0257 23.5315 97.0257H20.4012V107.257C20.4012 108.161 19.6822 108.876 18.7724 108.876C17.8625 108.876 17.1436 108.161 17.1436 107.257V97.0257H17.1459Z" fill="white"/>
<path d="M32.2412 101.436V101.394C32.2412 97.2131 35.5177 93.7886 40.001 93.7886C42.2426 93.7886 43.7229 94.2922 45.0547 95.2174C45.3729 95.4493 45.7312 95.8897 45.7312 96.5198C45.7312 97.4029 45.0123 98.1173 44.1236 98.1173C43.6593 98.1173 43.3623 97.9486 43.1289 97.7823C42.2403 97.1522 41.2903 96.7728 39.8949 96.7728C37.526 96.7728 35.6449 98.8528 35.6449 101.352V101.394C35.6449 104.083 37.5047 106.058 40.1259 106.058C41.3092 106.058 42.3676 105.763 43.1926 105.175V103.074H40.9933C40.2108 103.074 39.5767 102.465 39.5767 101.687C39.5767 100.909 40.2108 100.279 40.9933 100.279H44.7153C45.6251 100.279 46.3441 100.994 46.3441 101.898V105.47C46.3441 106.416 45.9858 107.067 45.2032 107.529C43.9987 108.264 42.2426 109 40.0245 109C35.4139 109 32.2412 105.786 32.2412 101.436Z" fill="white"/>
<path d="M49.05 95.5336C49.05 94.6295 49.769 93.915 50.6788 93.915C51.5887 93.915 52.3076 94.6295 52.3076 95.5336V105.807H58.3325C59.1575 105.807 59.8128 106.458 59.8128 107.278C59.8128 108.098 59.1575 108.749 58.3325 108.749H50.6788C49.769 108.749 49.05 108.035 49.05 107.131V95.5336Z" fill="white"/>
<path d="M60.2136 101.436V101.394C60.2136 97.2131 63.5325 93.7886 68.1007 93.7886C72.6665 93.7886 75.9453 97.171 75.9453 101.352V101.394C75.9453 105.575 72.6264 109 68.0582 109C63.4901 109 60.2136 105.618 60.2136 101.436ZM72.5392 101.436V101.394C72.5392 98.8739 70.6794 96.7728 68.0582 96.7728C65.4371 96.7728 63.6197 98.8317 63.6197 101.352V101.394C63.6197 103.915 65.4795 106.016 68.1007 106.016C70.7218 106.016 72.5392 103.959 72.5392 101.436Z" fill="white"/>
<path d="M78.4178 95.6601C78.4178 94.7559 79.1368 94.0415 80.0466 94.0415H85.289C86.9814 94.0415 88.3132 94.503 89.1571 95.3439C89.8336 96.0161 90.173 96.836 90.173 97.8432V97.8853C90.173 99.5437 89.2843 100.469 88.2283 101.057C89.9396 101.708 90.998 102.697 90.998 104.671V104.713C90.998 107.402 88.7988 108.747 85.4587 108.747H80.0466C79.1368 108.747 78.4178 108.032 78.4178 107.128V95.6601ZM84.5912 99.9864C86.0291 99.9864 86.939 99.525 86.939 98.4311V98.3889C86.939 97.4215 86.1776 96.8758 84.8034 96.8758H81.5906V99.9841H84.5912V99.9864ZM85.4587 105.913C86.8965 105.913 87.764 105.409 87.764 104.315V104.273C87.764 103.287 87.0238 102.675 85.3526 102.675H81.5906V105.91H85.4587V105.913Z" fill="white"/>
<path d="M92.4359 106.669L97.5933 95.0933C97.9516 94.2945 98.6093 93.812 99.4956 93.812H99.6865C100.575 93.812 101.209 94.2945 101.568 95.0933L106.725 106.669C106.831 106.901 106.895 107.11 106.895 107.32C106.895 108.182 106.218 108.876 105.351 108.876C104.589 108.876 104.083 108.435 103.786 107.763L102.791 105.451H96.2804L95.2432 107.866C94.9675 108.496 94.4182 108.873 93.7417 108.873C92.8955 108.873 92.2402 108.201 92.2402 107.36C92.2449 107.131 92.3298 106.899 92.4359 106.669ZM101.589 102.594L99.538 97.7402L97.4873 102.594H101.589Z" fill="white"/>
<path d="M109.033 95.5336C109.033 94.6295 109.752 93.915 110.662 93.915C111.571 93.915 112.29 94.6295 112.29 95.5336V105.807H118.315C119.14 105.807 119.795 106.458 119.795 107.278C119.795 108.098 119.14 108.749 118.315 108.749H110.662C109.752 108.749 109.033 108.035 109.033 107.131V95.5336Z" fill="white"/>
<path d="M127.616 107.131V95.6601C127.616 94.7559 128.335 94.0415 129.245 94.0415H137.448C138.252 94.0415 138.907 94.6927 138.907 95.4914C138.907 96.2902 138.252 96.9203 137.448 96.9203H130.853V99.9045H136.498C137.302 99.9045 137.957 100.556 137.957 101.354C137.957 102.153 137.302 102.783 136.498 102.783H130.853V105.87H137.554C138.358 105.87 139.013 106.522 139.013 107.32C139.013 108.119 138.358 108.749 137.554 108.749H129.243C128.335 108.747 127.616 108.035 127.616 107.131Z" fill="white"/>
<path d="M141.359 95.5758C141.359 94.6716 142.078 93.9572 142.987 93.9572H143.325C144.107 93.9572 144.571 94.3343 145.017 94.9035L151.296 103.097V95.5125C151.296 94.6295 152.015 93.915 152.904 93.915C153.793 93.915 154.512 94.6295 154.512 95.5125V107.215C154.512 108.119 153.793 108.834 152.883 108.834H152.777C151.994 108.834 151.53 108.456 151.087 107.887L144.576 99.4009V107.278C144.576 108.161 143.857 108.876 142.969 108.876C142.08 108.876 141.361 108.161 141.361 107.278V95.5758H141.359Z" fill="white"/>
<path d="M156.815 106.669L161.972 95.0933C162.33 94.2945 162.986 93.812 163.874 93.812H164.065C164.954 93.812 165.588 94.2945 165.946 95.0933L171.104 106.669C171.21 106.901 171.273 107.11 171.273 107.32C171.273 108.182 170.597 108.876 169.729 108.876C168.968 108.876 168.461 108.435 168.164 107.763L167.17 105.451H160.659L159.622 107.866C159.346 108.496 158.797 108.873 158.12 108.873C157.274 108.873 156.619 108.201 156.619 107.36C156.624 107.131 156.708 106.899 156.815 106.669ZM165.967 102.594L163.917 97.7402L161.866 102.594H165.967Z" fill="white"/>
<path d="M173.411 95.5336C173.411 94.6295 174.13 93.915 175.04 93.915C175.95 93.915 176.669 94.6295 176.669 95.5336V100.471L182.673 94.5475C183.073 94.1493 183.476 93.9174 184.047 93.9174C184.957 93.9174 185.548 94.6107 185.548 95.4095C185.548 95.9131 185.315 96.2925 184.957 96.6275L180.792 100.492L185.336 106.166C185.591 106.482 185.779 106.817 185.779 107.299C185.779 108.204 185.082 108.876 184.129 108.876C183.495 108.876 183.113 108.56 182.755 108.098L178.526 102.594L176.667 104.315V107.257C176.667 108.161 175.948 108.876 175.038 108.876C174.128 108.876 173.409 108.161 173.409 107.257V95.5336H173.411Z" fill="white"/>
<path d="M193.961 95.5758C193.961 94.6716 194.68 93.9572 195.59 93.9572H195.927C196.709 93.9572 197.174 94.3343 197.619 94.9035L203.899 103.097V95.5125C203.899 94.6295 204.618 93.915 205.506 93.915C206.395 93.915 207.114 94.6295 207.114 95.5125V107.215C207.114 108.119 206.395 108.834 205.485 108.834H205.379C204.596 108.834 204.132 108.456 203.689 107.887L197.178 99.4009V107.278C197.178 108.161 196.46 108.876 195.571 108.876C194.682 108.876 193.963 108.161 193.963 107.278V95.5758H193.961Z" fill="white"/>
<path d="M210.388 95.5336C210.388 94.6295 211.107 93.915 212.017 93.915C212.927 93.915 213.646 94.6295 213.646 95.5336V107.257C213.646 108.161 212.927 108.876 212.017 108.876C211.107 108.876 210.388 108.161 210.388 107.257V95.5336Z" fill="white"/>
<path d="M216.922 95.5336C216.922 94.6295 217.641 93.915 218.551 93.915C219.461 93.915 220.18 94.6295 220.18 95.5336V100.471L226.183 94.5475C226.584 94.1493 226.987 93.9174 227.558 93.9174C228.467 93.9174 229.059 94.6107 229.059 95.4095C229.059 95.9131 228.826 96.2925 228.467 96.6275L224.302 100.492L228.847 106.166C229.101 106.482 229.29 106.817 229.29 107.299C229.29 108.204 228.592 108.876 227.64 108.876C227.006 108.876 226.624 108.56 226.266 108.098L222.037 102.594L220.177 104.315V107.257C220.177 108.161 219.458 108.876 218.548 108.876C217.639 108.876 216.92 108.161 216.92 107.257V95.5336H216.922Z" fill="white"/>
<path d="M231.553 95.5759C231.553 94.6717 232.272 93.9573 233.182 93.9573H233.54C234.238 93.9573 234.723 94.3133 235.02 94.7982L238.952 101.165L242.905 94.7771C243.242 94.2313 243.709 93.9573 244.364 93.9573H244.725C245.635 93.9573 246.353 94.6717 246.353 95.5759V107.257C246.353 108.161 245.635 108.876 244.725 108.876C243.836 108.876 243.117 108.14 243.117 107.257V99.9256L240.263 104.297C239.926 104.8 239.501 105.116 238.91 105.116C238.318 105.116 237.896 104.8 237.557 104.297L234.744 99.9889V107.299C234.744 108.183 234.026 108.876 233.137 108.876C232.248 108.876 231.551 108.183 231.551 107.299V95.5759H231.553Z" fill="white"/>
<path d="M248.656 106.669L253.814 95.0933C254.172 94.2945 254.828 93.812 255.716 93.812H255.907C256.796 93.812 257.43 94.2945 257.788 95.0933L262.946 106.669C263.052 106.901 263.115 107.11 263.115 107.32C263.115 108.182 262.439 108.876 261.571 108.876C260.81 108.876 260.303 108.435 260.006 107.763L259.011 105.451H252.501L251.464 107.866C251.188 108.496 250.639 108.873 249.962 108.873C249.116 108.873 248.461 108.201 248.461 107.36C248.466 107.131 248.55 106.899 248.656 106.669ZM257.812 102.594L255.761 97.7402L253.71 102.594H257.812Z" fill="white"/>
<path d="M267.113 97.0257H263.985C263.16 97.0257 262.484 96.3534 262.484 95.5336C262.484 94.7138 263.16 94.0415 263.985 94.0415H273.499C274.324 94.0415 275 94.7138 275 95.5336C275 96.3534 274.324 97.0257 273.499 97.0257H270.371V107.257C270.371 108.161 269.652 108.876 268.742 108.876C267.832 108.876 267.113 108.161 267.113 107.257V97.0257Z" fill="white"/>
<path d="M81.0673 52.2255C66.8961 52.2255 55.3649 40.769 55.3649 26.6843C55.3649 12.602 66.8937 1.14307 81.0673 1.14307C95.2385 1.14307 106.77 12.5996 106.77 26.6843C106.77 40.769 95.2385 52.2255 81.0673 52.2255ZM81.0673 11.4542C72.6145 11.4542 65.7387 18.2869 65.7387 26.6866C65.7387 35.0864 72.6145 41.9191 81.0673 41.9191C89.5201 41.9191 96.3959 35.0864 96.3959 26.6866C96.3959 18.2869 89.5201 11.4542 81.0673 11.4542Z" fill="white"/>
<path d="M94.5667 56.4581C91.9762 61.2295 86.8965 64.4807 81.0673 64.4807C75.238 64.4807 70.1583 61.2319 67.5678 56.4581C63.1929 53.8721 59.7421 51.8319 55.3672 49.2483C55.3672 63.3306 66.896 74.7895 81.0696 74.7895C95.2408 74.7895 106.772 63.333 106.772 49.2483C102.395 51.8343 98.9416 53.8745 94.5667 56.4581Z" fill="white"/>
<path d="M151.367 26.846C151.301 32.271 148.329 37.546 143.004 40.2584C136.383 43.6315 128.151 41.7084 123.732 35.7611C118.379 28.563 120.399 18.4673 127.883 13.7896C135.016 9.33209 144.461 11.4519 148.977 18.5095L154.231 15.2255C156.261 13.9583 156.607 11.1826 154.988 9.42579C146.62 0.344407 132.529 -1.67238 121.789 5.4297C110.699 12.766 107.088 27.5206 113.572 39.0873C120.788 51.9586 137.337 56.0484 149.727 48.3045C158.566 42.7788 162.854 32.7465 161.479 23.0795C161.251 21.475 159.454 20.62 158.073 21.4843L152.407 25.026C151.777 25.4195 151.377 26.1035 151.367 26.846Z" fill="white"/>
<path d="M146 10.3646L116.146 29.0234L120.646 36.1338L150.501 17.475L146 10.3646Z" fill="white"/>
<path d="M177.449 26.4571C177.43 26.1526 177.418 25.8481 177.418 25.5412C177.418 17.1415 184.294 10.3088 192.747 10.3088C201.2 10.3088 208.076 17.1415 208.076 25.5412C208.076 25.8481 208.064 26.1549 208.045 26.4571H218.423C218.435 26.1526 218.447 25.8481 218.447 25.5412C218.449 11.4565 206.921 0 192.749 0C178.578 0 167.047 11.4565 167.047 25.5412C167.047 25.8481 167.059 26.1526 167.07 26.4571H177.449Z" fill="white"/>
<path d="M174.512 52.1108H169.953C168.348 52.1108 167.045 50.8178 167.045 49.2203V25.1594H177.418V49.2226C177.421 50.8178 176.117 52.1108 174.512 52.1108Z" fill="white"/>
<path d="M99.208 1.16406H103.767C105.372 1.16406 106.675 2.45705 106.675 4.05455V28.1178H96.3016V4.05455C96.2993 2.45705 97.6028 1.16406 99.208 1.16406Z" fill="white"/>
<path d="M215.543 52.1108H210.984C209.379 52.1108 208.076 50.8178 208.076 49.2203V25.1594H218.449V49.2226C218.449 50.8178 217.148 52.1108 215.543 52.1108Z" fill="white"/>
</g>
<defs>
<clipPath id="clip0_743_787">
<rect width="275" height="109" fill="white"/>
</clipPath>
</defs>
</svg>
