<svg width="620" height="297" viewBox="0 0 620 297" fill="none" xmlns="http://www.w3.org/2000/svg">
<path d="M0 118.701C0 106.725 9.75879 97.0162 21.7969 97.0162H598.203C610.241 97.0162 620 106.725 620 118.701V243.992C620 255.969 610.241 265.677 598.203 265.677H21.7969C9.75879 265.677 0 255.969 0 243.992V118.701Z" fill="#D9D9D9"/>
<path d="M0 118.701C0 106.725 9.75879 97.0162 21.7969 97.0162H152.578V265.677H21.7969C9.75879 265.677 0 255.969 0 243.992V118.701Z" fill="#077F51"/>
<path d="M152.578 97.0162H305.156V265.677H152.578V97.0162Z" fill="#30B839"/>
<path d="M305.156 97.0162H457.734V265.677H305.156V97.0162Z" fill="#FFB633"/>
<path d="M455.312 97.0162H598.203C610.241 97.0162 620 106.725 620 118.701V243.992C620 255.969 610.241 265.677 598.203 265.677H455.312V97.0162Z" fill="#B31C23"/>
<path d="M94.2428 215.079C93.5646 215.079 93.1238 214.742 92.9204 214.067L89.8688 204.15C89.7332 203.88 89.5637 203.745 89.3602 203.745H64.3374C64.134 203.745 63.9645 203.88 63.8288 204.15L60.879 214.067C60.6756 214.742 60.2348 215.079 59.5567 215.079H46.6384C46.2315 215.079 45.9263 214.978 45.7229 214.775C45.5195 214.505 45.4856 214.134 45.6212 213.662L67.5924 145.253C67.7959 144.579 68.2367 144.241 68.9148 144.241H84.8846C85.5627 144.241 86.0035 144.579 86.207 145.253L108.178 213.662C108.246 213.797 108.28 213.966 108.28 214.168C108.28 214.775 107.907 215.079 107.161 215.079H94.2428ZM67.4907 192.107C67.4229 192.512 67.5585 192.714 67.8976 192.714H85.8001C86.207 192.714 86.3426 192.512 86.207 192.107L77.0523 162.052C76.9845 161.782 76.8827 161.681 76.7471 161.748C76.6115 161.748 76.5098 161.85 76.442 162.052L67.4907 192.107Z" fill="white"/>
<path d="M380.519 215.889C375.23 215.889 370.585 214.877 366.584 212.853C362.583 210.761 359.497 207.86 357.327 204.15C355.157 200.439 354.072 196.155 354.072 191.298V167.921C354.072 163.064 355.157 158.78 357.327 155.069C359.497 151.359 362.583 148.492 366.584 146.468C370.585 144.444 375.23 143.432 380.519 143.432C385.741 143.432 390.318 144.41 394.251 146.366C398.252 148.255 401.338 150.988 403.508 154.563C405.746 158.072 406.864 162.153 406.864 166.808C406.864 167.415 406.458 167.786 405.644 167.921L393.743 168.63H393.539C392.861 168.63 392.522 168.259 392.522 167.517C392.522 163.941 391.403 161.074 389.165 158.915C386.995 156.756 384.113 155.677 380.519 155.677C376.857 155.677 373.908 156.756 371.67 158.915C369.5 161.074 368.415 163.941 368.415 167.517V191.905C368.415 195.413 369.5 198.247 371.67 200.405C373.908 202.564 376.857 203.644 380.519 203.644C384.113 203.644 386.995 202.564 389.165 200.405C391.403 198.247 392.522 195.413 392.522 191.905C392.522 191.163 392.929 190.792 393.743 190.792L405.644 191.298C405.983 191.298 406.254 191.399 406.458 191.601C406.729 191.804 406.864 192.04 406.864 192.31C406.864 196.965 405.746 201.08 403.508 204.656C401.338 208.231 398.252 210.997 394.251 212.954C390.318 214.91 385.741 215.889 380.519 215.889Z" fill="white"/>
<path d="M513.642 215.079C513.303 215.079 512.998 214.978 512.727 214.775C512.523 214.505 512.422 214.202 512.422 213.865V145.456C512.422 145.118 512.523 144.848 512.727 144.646C512.998 144.376 513.303 144.241 513.642 144.241H539.072C544.158 144.241 548.6 145.152 552.397 146.974C556.262 148.728 559.246 151.224 561.348 154.462C563.451 157.7 564.502 161.445 564.502 165.695V193.625C564.502 197.876 563.451 201.62 561.348 204.858C559.246 208.096 556.262 210.626 552.397 212.448C548.6 214.202 544.158 215.079 539.072 215.079H513.642ZM526.764 202.328C526.764 202.665 526.934 202.834 527.273 202.834H539.581C542.7 202.834 545.209 201.788 547.108 199.697C549.074 197.606 550.091 194.806 550.159 191.298V168.023C550.159 164.514 549.176 161.715 547.209 159.623C545.311 157.532 542.734 156.486 539.479 156.486H527.273C526.934 156.486 526.764 156.655 526.764 156.992V202.328Z" fill="white"/>
<path d="M112.617 181.347C112.617 117.473 164.664 65.6935 228.867 65.6935C293.07 65.6935 345.117 117.473 345.117 181.347C345.117 245.22 293.07 297 228.867 297C164.664 297 112.617 245.22 112.617 181.347Z" fill="#ACC32B"/>
<path d="M258.208 179.907C257.515 180.252 257.515 180.596 258.208 180.941C269.175 186.568 274.658 195.929 274.658 209.022C274.658 220.162 270.849 228.604 263.229 234.346C255.61 239.974 245.624 242.788 233.272 242.788H188.423C187.845 242.788 187.326 242.615 186.864 242.271C186.518 241.811 186.345 241.294 186.345 240.72V124.262C186.345 123.688 186.518 123.229 186.864 122.884C187.326 122.425 187.845 122.195 188.423 122.195H231.887C259.247 122.195 272.927 133.221 272.927 155.272C272.927 166.757 268.02 174.969 258.208 179.907ZM211.627 143.04C211.049 143.04 210.761 143.327 210.761 143.902V170.777C210.761 171.351 211.049 171.638 211.627 171.638H231.887C237.313 171.638 241.526 170.375 244.528 167.848C247.529 165.321 249.03 161.876 249.03 157.511C249.03 153.032 247.529 149.529 244.528 147.003C241.526 144.361 237.313 143.04 231.887 143.04H211.627ZM233.272 221.77C238.582 221.77 242.738 220.449 245.74 217.808C248.741 215.051 250.242 211.319 250.242 206.61C250.242 201.901 248.741 198.226 245.74 195.584C242.738 192.828 238.525 191.45 233.099 191.45H211.627C211.049 191.45 210.761 191.737 210.761 192.311V220.909C210.761 221.483 211.049 221.77 211.627 221.77H233.272Z" fill="white"/>
<path d="M170.323 3.0865C170.323 2.84154 170.397 2.64557 170.544 2.49859C170.741 2.30262 170.963 2.20464 171.209 2.20464H179.852C180.098 2.20464 180.295 2.30262 180.443 2.49859C180.64 2.64557 180.738 2.84154 180.738 3.0865V52.7644C180.738 53.0094 180.64 53.2298 180.443 53.4258C180.295 53.5728 180.098 53.6463 179.852 53.6463H171.505C171.012 53.6463 170.667 53.4503 170.471 53.0583L151.339 21.6055C151.24 21.4585 151.142 21.4095 151.043 21.4585C150.945 21.4585 150.896 21.5565 150.896 21.7525L151.043 52.7644C151.043 53.0094 150.945 53.2298 150.748 53.4258C150.6 53.5728 150.403 53.6463 150.157 53.6463H141.515C141.268 53.6463 141.047 53.5728 140.85 53.4258C140.702 53.2298 140.628 53.0094 140.628 52.7644V3.0865C140.628 2.84154 140.702 2.64557 140.85 2.49859C141.047 2.30262 141.268 2.20464 141.515 2.20464H149.862C150.354 2.20464 150.699 2.40061 150.896 2.79254L169.953 34.0984C170.052 34.2454 170.15 34.3189 170.249 34.3189C170.347 34.2699 170.397 34.1474 170.397 33.9515L170.323 3.0865Z" fill="fillCurrent"/>
<path d="M211.248 16.7553C211.248 16.5103 211.322 16.3143 211.47 16.1674C211.667 15.9714 211.888 15.8734 212.134 15.8734H220.777C221.023 15.8734 221.22 15.9714 221.368 16.1674C221.565 16.3143 221.663 16.5103 221.663 16.7553V52.7644C221.663 53.0094 221.565 53.2298 221.368 53.4258C221.22 53.5728 221.023 53.6463 220.777 53.6463H212.134C211.888 53.6463 211.667 53.5728 211.47 53.4258C211.322 53.2298 211.248 53.0094 211.248 52.7644V50.2658C211.248 50.1188 211.199 50.0453 211.1 50.0453C211.002 49.9963 210.903 50.0453 210.805 50.1923C208.835 52.8379 205.782 54.1607 201.645 54.1607C197.903 54.1607 194.825 53.0339 192.412 50.7802C189.999 48.5266 188.792 45.3666 188.792 41.3003V16.7553C188.792 16.5103 188.866 16.3143 189.014 16.1674C189.211 15.9714 189.433 15.8734 189.679 15.8734H198.247C198.494 15.8734 198.691 15.9714 198.838 16.1674C199.035 16.3143 199.134 16.5103 199.134 16.7553V38.7282C199.134 40.6879 199.651 42.2801 200.685 43.5049C201.768 44.7297 203.246 45.3421 205.117 45.3421C206.791 45.3421 208.17 44.8522 209.254 43.8723C210.337 42.8435 211.002 41.5207 211.248 39.904V16.7553Z" fill="fillCurrent"/>
<path d="M251.131 23.2957C251.131 23.5407 251.032 23.7611 250.835 23.9571C250.687 24.1041 250.49 24.1776 250.244 24.1776H243.153C242.907 24.1776 242.784 24.3 242.784 24.545V40.1245C242.784 41.7412 243.104 42.9415 243.744 43.7254C244.433 44.5092 245.517 44.9012 246.994 44.9012H249.432C249.678 44.9012 249.875 44.9992 250.023 45.1951C250.22 45.3421 250.318 45.5381 250.318 45.783V52.7644C250.318 53.3033 250.023 53.6218 249.432 53.7197C247.363 53.8177 245.886 53.8667 245 53.8667C240.912 53.8667 237.859 53.2053 235.84 51.8825C233.821 50.5108 232.787 47.9632 232.738 44.2398V24.545C232.738 24.3 232.615 24.1776 232.368 24.1776H228.158C227.912 24.1776 227.69 24.1041 227.493 23.9571C227.345 23.7611 227.271 23.5407 227.271 23.2957V16.7553C227.271 16.5103 227.345 16.3143 227.493 16.1674C227.69 15.9714 227.912 15.8734 228.158 15.8734H232.368C232.615 15.8734 232.738 15.7509 232.738 15.506V6.7609C232.738 6.51594 232.812 6.31997 232.959 6.17299C233.156 5.97702 233.378 5.87904 233.624 5.87904H241.897C242.143 5.87904 242.34 5.97702 242.488 6.17299C242.685 6.31997 242.784 6.51594 242.784 6.7609V15.506C242.784 15.7509 242.907 15.8734 243.153 15.8734H250.244C250.49 15.8734 250.687 15.9714 250.835 16.1674C251.032 16.3143 251.131 16.5103 251.131 16.7553V23.2957Z" fill="fillCurrent"/>
<path d="M276.311 15.359C278.083 15.359 279.487 15.7019 280.521 16.3878C280.915 16.5838 281.063 16.9512 280.964 17.4901L279.413 25.8678C279.364 26.4557 279.019 26.6272 278.379 26.3822C277.64 26.1372 276.778 26.0148 275.794 26.0148C275.4 26.0148 274.858 26.0637 274.168 26.1617C272.396 26.3087 270.894 26.9701 269.663 28.1459C268.431 29.2727 267.816 30.7915 267.816 32.7022V52.7644C267.816 53.0094 267.717 53.2298 267.52 53.4258C267.373 53.5728 267.176 53.6463 266.93 53.6463H258.287C258.041 53.6463 257.819 53.5728 257.622 53.4258C257.475 53.2298 257.401 53.0094 257.401 52.7644V16.7553C257.401 16.5103 257.475 16.3143 257.622 16.1674C257.819 15.9714 258.041 15.8734 258.287 15.8734H266.93C267.176 15.8734 267.373 15.9714 267.52 16.1674C267.717 16.3143 267.816 16.5103 267.816 16.7553V19.5478C267.816 19.6948 267.865 19.7928 267.964 19.8418C268.062 19.8908 268.136 19.8663 268.185 19.7683C270.204 16.8288 272.913 15.359 276.311 15.359Z" fill="fillCurrent"/>
<path d="M291.292 11.6111C289.618 11.6111 288.214 11.0722 287.081 9.99437C285.998 8.86755 285.456 7.47128 285.456 5.80555C285.456 4.09083 285.998 2.69456 287.081 1.61674C288.165 0.538913 289.568 0 291.292 0C293.015 0 294.419 0.538913 295.502 1.61674C296.586 2.69456 297.127 4.09083 297.127 5.80555C297.127 7.47128 296.561 8.86755 295.428 9.99437C294.345 11.0722 292.966 11.6111 291.292 11.6111ZM286.86 53.6463C286.614 53.6463 286.392 53.5728 286.195 53.4258C286.047 53.2298 285.973 53.0094 285.973 52.7644V16.6818C285.973 16.4368 286.047 16.2409 286.195 16.0939C286.392 15.8979 286.614 15.7999 286.86 15.7999H295.502C295.748 15.7999 295.945 15.8979 296.093 16.0939C296.29 16.2409 296.389 16.4368 296.389 16.6818V52.7644C296.389 53.0094 296.29 53.2298 296.093 53.4258C295.945 53.5728 295.748 53.6463 295.502 53.6463H286.86Z" fill="fillCurrent"/>
<path d="M303.693 36.3766C303.447 36.3766 303.225 36.3031 303.028 36.1561C302.88 35.9601 302.806 35.7397 302.806 35.4947V28.3664C302.806 28.1214 302.88 27.9254 303.028 27.7785C303.225 27.5825 303.447 27.4845 303.693 27.4845H327.847C328.094 27.4845 328.291 27.5825 328.438 27.7785C328.635 27.9254 328.734 28.1214 328.734 28.3664V35.4947C328.734 35.7397 328.635 35.9601 328.438 36.1561C328.291 36.3031 328.094 36.3766 327.847 36.3766H303.693Z" fill="fillCurrent"/>
<path d="M336.282 53.6463C336.035 53.6463 335.814 53.5728 335.617 53.4258C335.469 53.2298 335.395 53.0094 335.395 52.7644V3.0865C335.395 2.84154 335.469 2.64557 335.617 2.49859C335.814 2.30262 336.035 2.20464 336.282 2.20464H344.924C345.17 2.20464 345.367 2.30262 345.515 2.49859C345.712 2.64557 345.81 2.84154 345.81 3.0865V44.3868C345.81 44.6317 345.934 44.7542 346.18 44.7542H370.334C370.581 44.7542 370.778 44.8522 370.925 45.0482C371.122 45.1951 371.221 45.3911 371.221 45.6361V52.7644C371.221 53.0094 371.122 53.2298 370.925 53.4258C370.778 53.5728 370.581 53.6463 370.334 53.6463H336.282Z" fill="fillCurrent"/>
<path d="M410.612 30.865C410.907 32.7267 411.006 34.8088 410.907 37.1114C410.858 37.6994 410.538 37.9933 409.947 37.9933H387.122C386.826 37.9933 386.728 38.1158 386.826 38.3607C386.974 39.3406 387.245 40.3204 387.639 41.3003C388.919 44.0438 391.529 45.4156 395.469 45.4156C398.62 45.3666 401.107 44.0928 402.929 41.5942C403.126 41.3003 403.348 41.1533 403.594 41.1533C403.742 41.1533 403.914 41.2513 404.111 41.4472L409.43 46.6649C409.676 46.9099 409.799 47.1303 409.799 47.3263C409.799 47.4243 409.701 47.6202 409.504 47.9142C407.878 49.9229 405.786 51.4906 403.225 52.6174C400.664 53.6952 397.857 54.2342 394.804 54.2342C390.569 54.2342 386.974 53.2788 384.019 51.3681C381.114 49.4574 379.021 46.7874 377.741 43.3579C376.707 40.9083 376.189 37.6994 376.189 33.731C376.189 31.0364 376.559 28.6603 377.297 26.6027C378.43 23.1242 380.4 20.3562 383.207 18.2985C386.063 16.2409 389.436 15.212 393.327 15.212C398.251 15.212 402.191 16.6328 405.145 19.4743C408.149 22.3159 409.971 26.1127 410.612 30.865ZM393.401 24.1776C390.298 24.1776 388.254 25.6228 387.27 28.5134C387.073 29.1502 386.9 29.9341 386.752 30.865C386.752 31.1099 386.876 31.2324 387.122 31.2324H399.901C400.196 31.2324 400.295 31.1099 400.196 30.865C399.95 29.4442 399.827 28.7583 399.827 28.8073C399.384 27.3375 398.596 26.2107 397.463 25.4269C396.38 24.594 395.026 24.1776 393.401 24.1776Z" fill="fillCurrent"/>
<path d="M425.797 53.6463C425.305 53.6463 424.985 53.4013 424.837 52.9114L413.018 16.8288C412.969 16.7308 412.944 16.6083 412.944 16.4613C412.944 16.0204 413.215 15.7999 413.757 15.7999H423.286C423.827 15.7999 424.172 16.0449 424.32 16.5348L430.377 38.8017C430.426 38.9486 430.5 39.0221 430.598 39.0221C430.697 39.0221 430.771 38.9486 430.82 38.8017L436.877 16.5348C437.025 16.0449 437.37 15.7999 437.911 15.7999L447.44 15.9469C447.736 15.9469 447.957 16.0449 448.105 16.2409C448.253 16.3878 448.277 16.6328 448.179 16.9757L436.434 52.9114C436.286 53.4013 435.966 53.6463 435.474 53.6463H425.797Z" fill="fillCurrent"/>
<path d="M484.767 30.865C485.063 32.7267 485.161 34.8088 485.063 37.1114C485.014 37.6994 484.693 37.9933 484.102 37.9933H461.278C460.982 37.9933 460.884 38.1158 460.982 38.3607C461.13 39.3406 461.401 40.3204 461.795 41.3003C463.075 44.0438 465.685 45.4156 469.625 45.4156C472.776 45.3666 475.263 44.0928 477.085 41.5942C477.282 41.3003 477.504 41.1533 477.75 41.1533C477.898 41.1533 478.07 41.2513 478.267 41.4472L483.585 46.6649C483.832 46.9099 483.955 47.1303 483.955 47.3263C483.955 47.4243 483.856 47.6202 483.659 47.9142C482.034 49.9229 479.941 51.4906 477.381 52.6174C474.82 53.6952 472.013 54.2342 468.96 54.2342C464.725 54.2342 461.13 53.2788 458.175 51.3681C455.27 49.4574 453.177 46.7874 451.896 43.3579C450.862 40.9083 450.345 37.6994 450.345 33.731C450.345 31.0364 450.715 28.6603 451.453 26.6027C452.586 23.1242 454.556 20.3562 457.363 18.2985C460.219 16.2409 463.592 15.212 467.482 15.212C472.407 15.212 476.346 16.6328 479.301 19.4743C482.305 22.3159 484.127 26.1127 484.767 30.865ZM467.556 24.1776C464.454 24.1776 462.41 25.6228 461.425 28.5134C461.228 29.1502 461.056 29.9341 460.908 30.865C460.908 31.1099 461.031 31.2324 461.278 31.2324H474.057C474.352 31.2324 474.451 31.1099 474.352 30.865C474.106 29.4442 473.983 28.7583 473.983 28.8073C473.539 27.3375 472.752 26.2107 471.619 25.4269C470.536 24.594 469.181 24.1776 467.556 24.1776Z" fill="fillCurrent"/>
<path d="M492.368 53.6463C492.122 53.6463 491.9 53.5728 491.703 53.4258C491.556 53.2298 491.482 53.0094 491.482 52.7644V3.0865C491.482 2.84154 491.556 2.64557 491.703 2.49859C491.9 2.30262 492.122 2.20464 492.368 2.20464H501.011C501.257 2.20464 501.454 2.30262 501.602 2.49859C501.798 2.64557 501.897 2.84154 501.897 3.0865V52.7644C501.897 53.0094 501.798 53.2298 501.602 53.4258C501.454 53.5728 501.257 53.6463 501.011 53.6463H492.368Z" fill="fillCurrent"/>
</svg>
