<?xml version="1.0" encoding="utf-8"?>
<!-- Generator: Adobe Illustrator 30.3.0, SVG Export Plug-In . SVG Version: 9.03 Build 0)  -->
<svg version="1.1" id="Layer_1" xmlns="http://www.w3.org/2000/svg" xmlns:xlink="http://www.w3.org/1999/xlink" x="0px" y="0px"
	 viewBox="0 0 1920 1080" style="enable-background:new 0 0 1920 1080;" xml:space="preserve">
<style type="text/css">
	.st0{fill:none;}
	.st1{fill:#FFFFFF;}
	.st2{fill:url(#New_Pattern);}
</style>
<pattern  width="512" height="468" patternUnits="userSpaceOnUse" id="New_Pattern" viewBox="56.7 -638.31 512 468" style="overflow:visible;">
	<g>
		<rect x="56.7" y="-638.31" class="st0" width="512" height="468"/>
		<path class="st1" d="M240.64-710.15c-0.15-0.27-0.32-0.52-0.5-0.75c-1.29-1.62-3.18-2.03-5.22-2.03c-0.42,0-0.85,0.02-1.28,0.04
			c-0.62,0.04-1.23,0.11-1.84,0.18c-5.91,0.7-11.81,1.4-17.72,2.1c-4.34,0.52-8.69,1.05-13.01,1.56c-0.59,0.07-1.18,0.12-1.79,0.16
			c-0.49,0.03-0.98,0.06-1.46,0.06c-1.21,0-2.39-0.14-3.42-0.52c-1.63-0.61-2.9-1.85-3.35-4.23c-0.27-1.54-0.07-3.14,0.47-4.67
			l14.37-41.44l12.24-35.38c1.43-4.12,2.46-9.49-0.1-12.06c-0.72-0.71-1.72-1.2-3.07-1.39c-0.33-0.07-0.6-0.07-0.93-0.07
			c-0.33,0-0.73,0-1.13,0.07l-43.4,5.07c-0.44,0.04-0.89,0.09-1.34,0.15c-0.64,0.11-1.28,0.27-1.88,0.52
			c-0.42,0.18-0.82,0.42-1.19,0.73c-0.45,0.33-0.81,0.73-1.12,1.18c-0.66,0.96-1.07,2.11-1.42,3.24c-0.05,0.15-0.09,0.3-0.14,0.46
			c-0.08,0.28-0.16,0.55-0.25,0.83c-2.44,8.23-4.89,16.45-7.33,24.68c-5.15,17.34-10.31,34.69-15.46,52.03
			c-2.58,8.67-5.15,17.34-7.73,26.02c-0.45,1.5-1.17,3.35-1.85,5.32c-0.75,2.18-1.46,4.5-1.7,6.64c-0.47,4.01,0.73,7.34,6.41,7.88
			c0.18,0.03,0.36,0.04,0.55,0.05c0.07,0,0.14,0.01,0.21,0.01c0.17,0,0.33,0.01,0.51,0.01c0.48,0,0.97-0.03,1.47-0.07
			c0.26-0.02,0.51-0.04,0.77-0.07l11.76-1.45l20.32-2.54c1.14-0.13,2.4-0.27,3.61-0.27c1.83,0,3.6,0.31,4.94,1.26
			c1.12,0.78,1.95,2,2.29,3.88c0.04,0.25,0.07,0.51,0.09,0.77c0.06,0.71,0.03,1.44-0.1,2.17c-0.11,0.69-0.29,1.38-0.53,2.05
			l-17.25,48.08l-7.47,20.84c-1.4,3.94-2.87,7.95-3.94,12.02c-0.23,0.84,0.12,1.5,0.67,1.84c0.24,0.14,0.52,0.23,0.82,0.23
			c0.01,0,0.03,0,0.04,0c0.11,0,0.22-0.01,0.34-0.04c0.01,0,0.01,0,0.02,0c0.13-0.03,0.26-0.08,0.39-0.14
			c0.02-0.01,0.03-0.02,0.05-0.03c0.08-0.04,0.16-0.1,0.23-0.15c0.16-0.12,0.31-0.26,0.44-0.45l81.85-110.72
			c0.01-0.02,0.03-0.04,0.04-0.06c0.87-1.22,1.79-2.5,2.63-3.82c0.13-0.22,0.26-0.44,0.38-0.66c0.01-0.03,0.03-0.07,0.05-0.09
			c0.07-0.12,0.13-0.24,0.2-0.37c0.28-0.59,0.56-1.21,0.79-1.84c0.2-0.51,0.34-0.99,0.46-1.48c0.08-0.35,0.15-0.71,0.2-1.08
			C241.51-707.43,241.32-708.92,240.64-710.15z"/>
		<path class="st1" d="M368.64-651.65c-0.15-0.27-0.32-0.52-0.5-0.75c-1.29-1.62-3.18-2.03-5.22-2.03c-0.42,0-0.85,0.02-1.28,0.04
			c-0.62,0.04-1.23,0.11-1.84,0.18c-5.91,0.7-11.81,1.4-17.72,2.1c-4.34,0.52-8.69,1.05-13.01,1.56c-0.59,0.07-1.18,0.12-1.79,0.16
			c-0.49,0.03-0.98,0.06-1.46,0.06c-1.21,0-2.39-0.14-3.42-0.52c-1.63-0.61-2.89-1.85-3.35-4.23c-0.27-1.54-0.07-3.14,0.47-4.67
			l14.37-41.44l12.24-35.38c1.43-4.12,2.46-9.49-0.1-12.06c-0.72-0.71-1.72-1.2-3.07-1.39c-0.33-0.07-0.6-0.07-0.93-0.07
			c-0.33,0-0.73,0-1.13,0.07l-43.4,5.07c-0.44,0.04-0.89,0.09-1.34,0.15c-0.64,0.11-1.28,0.27-1.88,0.52
			c-0.42,0.18-0.82,0.42-1.19,0.73c-0.45,0.33-0.81,0.73-1.12,1.18c-0.66,0.96-1.07,2.11-1.42,3.24c-0.05,0.15-0.09,0.3-0.14,0.46
			c-0.08,0.28-0.16,0.55-0.25,0.83c-2.44,8.23-4.89,16.45-7.33,24.68c-5.15,17.34-10.31,34.69-15.46,52.03
			c-2.58,8.67-5.15,17.34-7.73,26.02c-0.45,1.5-1.17,3.35-1.85,5.32c-0.75,2.18-1.46,4.5-1.7,6.64c-0.47,4.01,0.73,7.34,6.41,7.88
			c0.18,0.03,0.36,0.04,0.55,0.05c0.07,0,0.14,0.01,0.21,0.01c0.17,0,0.33,0.01,0.51,0.01c0.48,0,0.97-0.03,1.47-0.07
			c0.26-0.02,0.51-0.04,0.77-0.07l11.76-1.45l20.32-2.54c1.14-0.13,2.4-0.27,3.61-0.27c1.83,0,3.6,0.31,4.94,1.26
			c1.12,0.78,1.95,2,2.29,3.88c0.04,0.25,0.07,0.51,0.09,0.77c0.06,0.71,0.03,1.44-0.1,2.17c-0.11,0.69-0.29,1.38-0.53,2.05
			l-17.25,48.08l-7.47,20.84c-1.4,3.94-2.87,7.95-3.94,12.02c-0.23,0.84,0.12,1.5,0.67,1.84c0.24,0.14,0.52,0.23,0.82,0.23
			c0.01,0,0.03,0,0.04,0c0.11,0,0.22-0.01,0.34-0.04c0.01,0,0.01,0,0.02,0c0.13-0.03,0.26-0.08,0.39-0.14
			c0.02-0.01,0.03-0.02,0.05-0.03c0.08-0.04,0.16-0.1,0.23-0.15c0.16-0.12,0.31-0.26,0.44-0.45l81.85-110.72
			c0.01-0.02,0.03-0.04,0.04-0.06c0.87-1.22,1.79-2.5,2.63-3.82c0.13-0.22,0.26-0.44,0.38-0.66c0.01-0.03,0.03-0.07,0.05-0.09
			c0.07-0.12,0.13-0.24,0.2-0.37c0.28-0.59,0.56-1.21,0.79-1.84c0.2-0.51,0.34-0.99,0.46-1.48c0.08-0.35,0.15-0.71,0.2-1.08
			C369.51-648.93,369.32-650.42,368.64-651.65z"/>
		<path class="st1" d="M496.64-593.15c-0.15-0.27-0.32-0.52-0.5-0.75c-1.29-1.62-3.18-2.03-5.22-2.03c-0.42,0-0.85,0.02-1.28,0.04
			c-0.62,0.04-1.23,0.11-1.84,0.18c-5.91,0.7-11.81,1.4-17.72,2.1c-4.34,0.52-8.69,1.05-13.01,1.56c-0.59,0.07-1.18,0.12-1.79,0.16
			c-0.49,0.03-0.98,0.06-1.46,0.06c-1.21,0-2.39-0.14-3.42-0.52c-1.63-0.61-2.89-1.85-3.35-4.23c-0.27-1.54-0.07-3.14,0.47-4.67
			l14.37-41.44l12.24-35.38c1.43-4.12,2.46-9.49-0.1-12.06c-0.72-0.71-1.72-1.2-3.07-1.39c-0.33-0.07-0.6-0.07-0.93-0.07
			c-0.33,0-0.73,0-1.13,0.07l-43.4,5.07c-0.44,0.04-0.89,0.09-1.34,0.15c-0.64,0.11-1.28,0.27-1.88,0.52
			c-0.42,0.18-0.82,0.42-1.19,0.73c-0.45,0.33-0.81,0.73-1.12,1.18c-0.66,0.96-1.07,2.11-1.42,3.24c-0.05,0.15-0.09,0.3-0.14,0.46
			c-0.08,0.28-0.16,0.55-0.25,0.83c-2.44,8.23-4.89,16.45-7.33,24.68c-5.15,17.34-10.31,34.69-15.46,52.03
			c-2.58,8.67-5.15,17.34-7.73,26.02c-0.45,1.5-1.17,3.35-1.85,5.32c-0.75,2.18-1.46,4.5-1.7,6.64c-0.47,4.01,0.73,7.34,6.41,7.88
			c0.18,0.03,0.36,0.04,0.55,0.05c0.07,0,0.14,0.01,0.21,0.01c0.17,0,0.33,0.01,0.51,0.01c0.48,0,0.97-0.03,1.47-0.07
			c0.26-0.02,0.51-0.04,0.77-0.07l11.76-1.45l20.32-2.54c1.14-0.13,2.4-0.27,3.61-0.27c1.83,0,3.6,0.31,4.94,1.26
			c1.12,0.78,1.95,2,2.29,3.88c0.04,0.25,0.07,0.51,0.09,0.77c0.06,0.71,0.03,1.44-0.1,2.17c-0.11,0.69-0.29,1.38-0.53,2.05
			l-17.25,48.08l-7.47,20.84c-1.4,3.94-2.87,7.95-3.94,12.02c-0.23,0.84,0.12,1.5,0.67,1.84c0.24,0.14,0.52,0.23,0.82,0.23
			c0.01,0,0.03,0,0.04,0c0.11,0,0.22-0.01,0.34-0.04c0.01,0,0.01,0,0.02,0c0.13-0.03,0.26-0.08,0.39-0.14
			c0.02-0.01,0.03-0.02,0.05-0.03c0.08-0.04,0.16-0.1,0.23-0.15c0.16-0.12,0.31-0.26,0.44-0.45l81.85-110.72
			c0.01-0.02,0.03-0.04,0.04-0.06c0.87-1.22,1.79-2.5,2.63-3.82c0.13-0.22,0.26-0.44,0.38-0.66c0.01-0.03,0.03-0.07,0.05-0.09
			c0.07-0.12,0.13-0.24,0.2-0.37c0.28-0.59,0.56-1.21,0.79-1.84c0.2-0.51,0.34-0.99,0.46-1.48c0.08-0.35,0.15-0.71,0.2-1.08
			C497.51-590.43,497.32-591.92,496.64-593.15z"/>
		<path class="st1" d="M112.64-534.65c-0.15-0.27-0.32-0.52-0.5-0.75c-1.29-1.62-3.18-2.03-5.22-2.03c-0.42,0-0.85,0.02-1.28,0.04
			c-0.62,0.04-1.23,0.11-1.84,0.18c-5.91,0.7-11.81,1.4-17.72,2.1c-4.34,0.52-8.69,1.05-13.01,1.56c-0.59,0.07-1.18,0.12-1.79,0.16
			c-0.49,0.03-0.98,0.06-1.46,0.06c-1.21,0-2.39-0.14-3.42-0.52c-1.63-0.61-2.89-1.85-3.35-4.23c-0.27-1.54-0.07-3.14,0.47-4.67
			l14.37-41.44l12.24-35.38c1.43-4.12,2.46-9.49-0.1-12.06c-0.72-0.71-1.72-1.2-3.07-1.39c-0.33-0.07-0.6-0.07-0.93-0.07
			c-0.33,0-0.73,0-1.13,0.07l-43.4,5.07c-0.44,0.04-0.89,0.09-1.34,0.15c-0.64,0.11-1.28,0.27-1.88,0.52
			c-0.42,0.18-0.82,0.42-1.19,0.73c-0.45,0.33-0.81,0.73-1.12,1.18c-0.66,0.96-1.07,2.11-1.42,3.24c-0.05,0.15-0.09,0.3-0.14,0.46
			c-0.08,0.28-0.16,0.55-0.25,0.83c-2.44,8.23-4.89,16.45-7.33,24.68c-5.15,17.34-10.31,34.69-15.46,52.03
			c-2.58,8.67-5.15,17.34-7.73,26.02c-0.45,1.5-1.17,3.35-1.85,5.32c-0.75,2.18-1.46,4.5-1.7,6.64c-0.47,4.01,0.73,7.34,6.41,7.88
			c0.18,0.03,0.36,0.04,0.55,0.05c0.07,0,0.14,0.01,0.21,0.01c0.17,0,0.33,0.01,0.51,0.01c0.48,0,0.97-0.03,1.47-0.07
			c0.26-0.02,0.51-0.04,0.77-0.07l11.76-1.45l20.32-2.54c1.14-0.13,2.4-0.27,3.61-0.27c1.83,0,3.6,0.31,4.94,1.26
			c1.12,0.78,1.95,2,2.29,3.88c0.04,0.25,0.07,0.51,0.09,0.77c0.06,0.71,0.03,1.44-0.1,2.17c-0.11,0.69-0.29,1.38-0.53,2.05
			l-17.25,48.08l-7.47,20.84c-1.4,3.94-2.87,7.95-3.94,12.02c-0.23,0.84,0.12,1.5,0.67,1.84c0.24,0.14,0.52,0.23,0.82,0.23
			c0.01,0,0.03,0,0.04,0c0.11,0,0.22-0.01,0.34-0.04c0.01,0,0.01,0,0.02,0c0.13-0.03,0.26-0.08,0.39-0.14
			c0.02-0.01,0.03-0.02,0.05-0.03c0.08-0.04,0.16-0.1,0.23-0.15c0.16-0.12,0.31-0.26,0.44-0.45l81.85-110.72
			c0.01-0.02,0.03-0.04,0.04-0.06c0.87-1.22,1.79-2.5,2.63-3.82c0.13-0.22,0.26-0.44,0.38-0.66c0.01-0.03,0.03-0.07,0.05-0.09
			c0.07-0.12,0.13-0.24,0.2-0.37c0.28-0.59,0.56-1.21,0.79-1.84c0.2-0.51,0.34-0.99,0.46-1.48c0.08-0.35,0.15-0.71,0.2-1.08
			C113.51-531.93,113.32-533.42,112.64-534.65z"/>
		<path class="st1" d="M240.64-476.15c-0.15-0.27-0.32-0.52-0.5-0.75c-1.29-1.62-3.18-2.03-5.22-2.03c-0.42,0-0.85,0.02-1.28,0.04
			c-0.62,0.04-1.23,0.11-1.84,0.18c-5.91,0.7-11.81,1.4-17.72,2.1c-4.34,0.52-8.69,1.05-13.01,1.56c-0.59,0.07-1.18,0.12-1.79,0.16
			c-0.49,0.03-0.98,0.06-1.46,0.06c-1.21,0-2.39-0.14-3.42-0.52c-1.63-0.61-2.9-1.85-3.35-4.23c-0.27-1.54-0.07-3.14,0.47-4.67
			l14.37-41.44l12.24-35.38c1.43-4.12,2.46-9.49-0.1-12.06c-0.72-0.71-1.72-1.2-3.07-1.39c-0.33-0.07-0.6-0.07-0.93-0.07
			c-0.33,0-0.73,0-1.13,0.07l-43.4,5.07c-0.44,0.04-0.89,0.09-1.34,0.15c-0.64,0.11-1.28,0.27-1.88,0.52
			c-0.42,0.18-0.82,0.42-1.19,0.73c-0.45,0.33-0.81,0.73-1.12,1.18c-0.66,0.96-1.07,2.11-1.42,3.24c-0.05,0.15-0.09,0.3-0.14,0.46
			c-0.08,0.28-0.16,0.55-0.25,0.83c-2.44,8.23-4.89,16.45-7.33,24.68c-5.15,17.34-10.31,34.69-15.46,52.03
			c-2.58,8.67-5.15,17.34-7.73,26.02c-0.45,1.5-1.17,3.35-1.85,5.32c-0.75,2.18-1.46,4.5-1.7,6.64c-0.47,4.01,0.73,7.34,6.41,7.88
			c0.18,0.03,0.36,0.04,0.55,0.05c0.07,0,0.14,0.01,0.21,0.01c0.17,0,0.33,0.01,0.51,0.01c0.48,0,0.97-0.03,1.47-0.07
			c0.26-0.02,0.51-0.04,0.77-0.07l11.76-1.45l20.32-2.54c1.14-0.13,2.4-0.27,3.61-0.27c1.83,0,3.6,0.31,4.94,1.26
			c1.12,0.78,1.95,2,2.29,3.88c0.04,0.25,0.07,0.51,0.09,0.77c0.06,0.71,0.03,1.44-0.1,2.17c-0.11,0.69-0.29,1.38-0.53,2.05
			l-17.25,48.08l-7.47,20.84c-1.4,3.94-2.87,7.95-3.94,12.02c-0.23,0.84,0.12,1.5,0.67,1.84c0.24,0.14,0.52,0.23,0.82,0.23
			c0.01,0,0.03,0,0.04,0c0.11,0,0.22-0.01,0.34-0.04c0.01,0,0.01,0,0.02,0c0.13-0.03,0.26-0.08,0.39-0.14
			c0.02-0.01,0.03-0.02,0.05-0.03c0.08-0.04,0.16-0.1,0.23-0.15c0.16-0.12,0.31-0.26,0.44-0.45l81.85-110.72
			c0.01-0.02,0.03-0.04,0.04-0.06c0.87-1.22,1.79-2.5,2.63-3.82c0.13-0.22,0.26-0.44,0.38-0.66c0.01-0.03,0.03-0.07,0.05-0.09
			c0.07-0.12,0.13-0.24,0.2-0.37c0.28-0.59,0.56-1.21,0.79-1.84c0.2-0.51,0.34-0.99,0.46-1.48c0.08-0.35,0.15-0.71,0.2-1.08
			C241.51-473.43,241.32-474.92,240.64-476.15z"/>
		<path class="st1" d="M368.64-417.65c-0.15-0.27-0.32-0.52-0.5-0.75c-1.29-1.62-3.18-2.03-5.22-2.03c-0.42,0-0.85,0.02-1.28,0.04
			c-0.62,0.04-1.23,0.11-1.84,0.18c-5.91,0.7-11.81,1.4-17.72,2.1c-4.34,0.52-8.69,1.05-13.01,1.56c-0.59,0.07-1.18,0.12-1.79,0.16
			c-0.49,0.03-0.98,0.06-1.46,0.06c-1.21,0-2.39-0.14-3.42-0.52c-1.63-0.61-2.89-1.85-3.35-4.23c-0.27-1.54-0.07-3.14,0.47-4.67
			l14.37-41.44l12.24-35.38c1.43-4.12,2.46-9.49-0.1-12.06c-0.72-0.71-1.72-1.2-3.07-1.39c-0.33-0.07-0.6-0.07-0.93-0.07
			c-0.33,0-0.73,0-1.13,0.07l-43.4,5.07c-0.44,0.04-0.89,0.09-1.34,0.15c-0.64,0.11-1.28,0.27-1.88,0.52
			c-0.42,0.18-0.82,0.42-1.19,0.73c-0.45,0.33-0.81,0.73-1.12,1.18c-0.66,0.96-1.07,2.11-1.42,3.24c-0.05,0.15-0.09,0.3-0.14,0.46
			c-0.08,0.28-0.16,0.55-0.25,0.83c-2.44,8.23-4.89,16.45-7.33,24.68c-5.15,17.34-10.31,34.69-15.46,52.03
			c-2.58,8.67-5.15,17.34-7.73,26.02c-0.45,1.5-1.17,3.35-1.85,5.32c-0.75,2.18-1.46,4.5-1.7,6.64c-0.47,4.01,0.73,7.34,6.41,7.88
			c0.18,0.03,0.36,0.04,0.55,0.05c0.07,0,0.14,0.01,0.21,0.01c0.17,0,0.33,0.01,0.51,0.01c0.48,0,0.97-0.03,1.47-0.07
			c0.26-0.02,0.51-0.04,0.77-0.07l11.76-1.45l20.32-2.54c1.14-0.13,2.4-0.27,3.61-0.27c1.83,0,3.6,0.31,4.94,1.26
			c1.12,0.78,1.95,2,2.29,3.88c0.04,0.25,0.07,0.51,0.09,0.77c0.06,0.71,0.03,1.44-0.1,2.17c-0.11,0.69-0.29,1.38-0.53,2.05
			l-17.25,48.08l-7.47,20.84c-1.4,3.94-2.87,7.95-3.94,12.02c-0.23,0.84,0.12,1.5,0.67,1.84c0.24,0.14,0.52,0.23,0.82,0.23
			c0.01,0,0.03,0,0.04,0c0.11,0,0.22-0.01,0.34-0.04c0.01,0,0.01,0,0.02,0c0.13-0.03,0.26-0.08,0.39-0.14
			c0.02-0.01,0.03-0.02,0.05-0.03c0.08-0.04,0.16-0.1,0.23-0.15c0.16-0.12,0.31-0.26,0.44-0.45l81.85-110.72
			c0.01-0.02,0.03-0.04,0.04-0.06c0.87-1.22,1.79-2.5,2.63-3.82c0.13-0.22,0.26-0.44,0.38-0.66c0.01-0.03,0.03-0.07,0.05-0.09
			c0.07-0.12,0.13-0.24,0.2-0.37c0.28-0.59,0.56-1.21,0.79-1.84c0.2-0.51,0.34-0.99,0.46-1.48c0.08-0.35,0.15-0.71,0.2-1.08
			C369.51-414.93,369.32-416.42,368.64-417.65z"/>
		<path class="st1" d="M496.64-359.15c-0.15-0.27-0.32-0.52-0.5-0.75c-1.29-1.62-3.18-2.03-5.22-2.03c-0.42,0-0.85,0.02-1.28,0.04
			c-0.62,0.04-1.23,0.11-1.84,0.18c-5.91,0.7-11.81,1.4-17.72,2.1c-4.34,0.52-8.69,1.05-13.01,1.56c-0.59,0.07-1.18,0.12-1.79,0.16
			c-0.49,0.03-0.98,0.06-1.46,0.06c-1.21,0-2.39-0.14-3.42-0.52c-1.63-0.61-2.89-1.85-3.35-4.23c-0.27-1.54-0.07-3.14,0.47-4.67
			l14.37-41.44l12.24-35.38c1.43-4.12,2.46-9.49-0.1-12.06c-0.72-0.71-1.72-1.2-3.07-1.39c-0.33-0.07-0.6-0.07-0.93-0.07
			c-0.33,0-0.73,0-1.13,0.07l-43.4,5.07c-0.44,0.04-0.89,0.09-1.34,0.15c-0.64,0.11-1.28,0.27-1.88,0.52
			c-0.42,0.18-0.82,0.42-1.19,0.73c-0.45,0.33-0.81,0.73-1.12,1.18c-0.66,0.96-1.07,2.11-1.42,3.24c-0.05,0.15-0.09,0.3-0.14,0.46
			c-0.08,0.28-0.16,0.55-0.25,0.83c-2.44,8.23-4.89,16.45-7.33,24.68c-5.15,17.34-10.31,34.69-15.46,52.03
			c-2.58,8.67-5.15,17.34-7.73,26.02c-0.45,1.5-1.17,3.35-1.85,5.32c-0.75,2.18-1.46,4.5-1.7,6.64c-0.47,4.01,0.73,7.34,6.41,7.88
			c0.18,0.03,0.36,0.04,0.55,0.05c0.07,0,0.14,0.01,0.21,0.01c0.17,0,0.33,0.01,0.51,0.01c0.48,0,0.97-0.03,1.47-0.07
			c0.26-0.02,0.51-0.04,0.77-0.07l11.76-1.45l20.32-2.54c1.14-0.13,2.4-0.27,3.61-0.27c1.83,0,3.6,0.31,4.94,1.26
			c1.12,0.78,1.95,2,2.29,3.88c0.04,0.25,0.07,0.51,0.09,0.77c0.06,0.71,0.03,1.44-0.1,2.17c-0.11,0.69-0.29,1.38-0.53,2.05
			l-17.25,48.08l-7.47,20.84c-1.4,3.94-2.87,7.95-3.94,12.02c-0.23,0.84,0.12,1.5,0.67,1.84c0.24,0.14,0.52,0.23,0.82,0.23
			c0.01,0,0.03,0,0.04,0c0.11,0,0.22-0.01,0.34-0.04c0.01,0,0.01,0,0.02,0c0.13-0.03,0.26-0.08,0.39-0.14
			c0.02-0.01,0.03-0.02,0.05-0.03c0.08-0.04,0.16-0.1,0.23-0.15c0.16-0.12,0.31-0.26,0.44-0.45l81.85-110.72
			c0.01-0.02,0.03-0.04,0.04-0.06c0.87-1.22,1.79-2.5,2.63-3.82c0.13-0.22,0.26-0.44,0.38-0.66c0.01-0.03,0.03-0.07,0.05-0.09
			c0.07-0.12,0.13-0.24,0.2-0.37c0.28-0.59,0.56-1.21,0.79-1.84c0.2-0.51,0.34-0.99,0.46-1.48c0.08-0.35,0.15-0.71,0.2-1.08
			C497.51-356.43,497.32-357.92,496.64-359.15z"/>
		<path class="st1" d="M624.64-534.65c-0.15-0.27-0.32-0.52-0.5-0.75c-1.29-1.62-3.18-2.03-5.22-2.03c-0.42,0-0.85,0.02-1.28,0.04
			c-0.62,0.04-1.23,0.11-1.84,0.18c-5.91,0.7-11.81,1.4-17.72,2.1c-4.34,0.52-8.69,1.05-13.01,1.56c-0.59,0.07-1.18,0.12-1.79,0.16
			c-0.49,0.03-0.98,0.06-1.46,0.06c-1.21,0-2.39-0.14-3.42-0.52c-1.63-0.61-2.89-1.85-3.35-4.23c-0.27-1.54-0.07-3.14,0.47-4.67
			l14.37-41.44l12.24-35.38c1.43-4.12,2.46-9.49-0.1-12.06c-0.72-0.71-1.72-1.2-3.07-1.39c-0.33-0.07-0.6-0.07-0.93-0.07
			c-0.33,0-0.73,0-1.13,0.07l-43.4,5.07c-0.44,0.04-0.89,0.09-1.34,0.15c-0.64,0.11-1.28,0.27-1.88,0.52
			c-0.42,0.18-0.82,0.42-1.19,0.73c-0.45,0.33-0.81,0.73-1.12,1.18c-0.66,0.96-1.07,2.11-1.42,3.24c-0.05,0.15-0.09,0.3-0.14,0.46
			c-0.08,0.28-0.16,0.55-0.25,0.83c-2.44,8.23-4.89,16.45-7.33,24.68c-5.15,17.34-10.31,34.69-15.46,52.03
			c-2.58,8.67-5.15,17.34-7.73,26.02c-0.45,1.5-1.17,3.35-1.85,5.32c-0.75,2.18-1.46,4.5-1.7,6.64c-0.47,4.01,0.73,7.34,6.41,7.88
			c0.18,0.03,0.36,0.04,0.55,0.05c0.07,0,0.14,0.01,0.21,0.01c0.17,0,0.33,0.01,0.51,0.01c0.48,0,0.97-0.03,1.47-0.07
			c0.26-0.02,0.51-0.04,0.77-0.07l11.76-1.45l20.32-2.54c1.14-0.13,2.4-0.27,3.61-0.27c1.83,0,3.6,0.31,4.94,1.26
			c1.12,0.78,1.95,2,2.29,3.88c0.04,0.25,0.07,0.51,0.09,0.77c0.06,0.71,0.03,1.44-0.1,2.17c-0.11,0.69-0.29,1.38-0.53,2.05
			l-17.25,48.08l-7.47,20.84c-1.4,3.94-2.87,7.95-3.94,12.02c-0.23,0.84,0.12,1.5,0.67,1.84c0.24,0.14,0.52,0.23,0.82,0.23
			c0.01,0,0.03,0,0.04,0c0.11,0,0.22-0.01,0.34-0.04c0.01,0,0.01,0,0.02,0c0.13-0.03,0.26-0.08,0.39-0.14
			c0.02-0.01,0.03-0.02,0.05-0.03c0.08-0.04,0.16-0.1,0.23-0.15c0.16-0.12,0.31-0.26,0.44-0.45l81.85-110.72
			c0.01-0.02,0.03-0.04,0.04-0.06c0.87-1.22,1.79-2.5,2.63-3.82c0.13-0.22,0.26-0.44,0.38-0.66c0.01-0.03,0.03-0.07,0.05-0.09
			c0.07-0.12,0.13-0.24,0.2-0.37c0.28-0.59,0.56-1.21,0.79-1.84c0.2-0.51,0.34-0.99,0.46-1.48c0.08-0.35,0.15-0.71,0.2-1.08
			C625.51-531.93,625.32-533.42,624.64-534.65z"/>
		<path class="st1" d="M112.64-300.65c-0.15-0.27-0.32-0.52-0.5-0.75c-1.29-1.62-3.18-2.03-5.22-2.03c-0.42,0-0.85,0.02-1.28,0.04
			c-0.62,0.04-1.23,0.11-1.84,0.18c-5.91,0.7-11.81,1.4-17.72,2.1c-4.34,0.52-8.69,1.05-13.01,1.56c-0.59,0.07-1.18,0.12-1.79,0.16
			c-0.49,0.03-0.98,0.06-1.46,0.06c-1.21,0-2.39-0.14-3.42-0.52c-1.63-0.61-2.89-1.85-3.35-4.23c-0.27-1.54-0.07-3.14,0.47-4.67
			l14.37-41.44l12.24-35.38c1.43-4.12,2.46-9.49-0.1-12.06c-0.72-0.71-1.72-1.2-3.07-1.39c-0.33-0.07-0.6-0.07-0.93-0.07
			c-0.33,0-0.73,0-1.13,0.07l-43.4,5.07c-0.44,0.04-0.89,0.09-1.34,0.15c-0.64,0.11-1.28,0.27-1.88,0.52
			c-0.42,0.18-0.82,0.42-1.19,0.73c-0.45,0.33-0.81,0.73-1.12,1.18c-0.66,0.96-1.07,2.11-1.42,3.24c-0.05,0.15-0.09,0.3-0.14,0.46
			c-0.08,0.28-0.16,0.55-0.25,0.83c-2.44,8.23-4.89,16.45-7.33,24.68c-5.15,17.34-10.31,34.69-15.46,52.03
			c-2.58,8.67-5.15,17.34-7.73,26.02c-0.45,1.5-1.17,3.35-1.85,5.32c-0.75,2.18-1.46,4.5-1.7,6.64c-0.47,4.01,0.73,7.34,6.41,7.88
			c0.18,0.03,0.36,0.04,0.55,0.05c0.07,0,0.14,0.01,0.21,0.01c0.17,0,0.33,0.01,0.51,0.01c0.48,0,0.97-0.03,1.47-0.07
			c0.26-0.02,0.51-0.04,0.77-0.07l11.76-1.45l20.32-2.54c1.14-0.13,2.4-0.27,3.61-0.27c1.83,0,3.6,0.31,4.94,1.26
			c1.12,0.78,1.95,2,2.29,3.88c0.04,0.25,0.07,0.51,0.09,0.77c0.06,0.71,0.03,1.44-0.1,2.17c-0.11,0.69-0.29,1.38-0.53,2.05
			l-17.25,48.08l-7.47,20.84c-1.4,3.94-2.87,7.95-3.94,12.02c-0.23,0.84,0.12,1.5,0.67,1.84c0.24,0.14,0.52,0.23,0.82,0.23
			c0.01,0,0.03,0,0.04,0c0.11,0,0.22-0.01,0.34-0.04c0.01,0,0.01,0,0.02,0c0.13-0.03,0.26-0.08,0.39-0.14
			c0.02-0.01,0.03-0.02,0.05-0.03c0.08-0.04,0.16-0.1,0.23-0.15c0.16-0.12,0.31-0.26,0.44-0.45l81.85-110.72
			c0.01-0.02,0.03-0.04,0.04-0.06c0.87-1.22,1.79-2.5,2.63-3.82c0.13-0.22,0.26-0.44,0.38-0.66c0.01-0.03,0.03-0.07,0.05-0.09
			c0.07-0.12,0.13-0.24,0.2-0.37c0.28-0.59,0.56-1.21,0.79-1.84c0.2-0.51,0.34-0.99,0.46-1.48c0.08-0.35,0.15-0.71,0.2-1.08
			C113.51-297.93,113.32-299.42,112.64-300.65z"/>
		<path class="st1" d="M240.64-242.15c-0.15-0.27-0.32-0.52-0.5-0.75c-1.29-1.62-3.18-2.03-5.22-2.03c-0.42,0-0.85,0.02-1.28,0.04
			c-0.62,0.04-1.23,0.11-1.84,0.18c-5.91,0.7-11.81,1.4-17.72,2.1c-4.34,0.52-8.69,1.05-13.01,1.56c-0.59,0.07-1.18,0.12-1.79,0.16
			c-0.49,0.03-0.98,0.06-1.46,0.06c-1.21,0-2.39-0.14-3.42-0.52c-1.63-0.61-2.9-1.85-3.35-4.23c-0.27-1.54-0.07-3.14,0.47-4.67
			l14.37-41.44l12.24-35.38c1.43-4.12,2.46-9.49-0.1-12.06c-0.72-0.71-1.72-1.2-3.07-1.39c-0.33-0.07-0.6-0.07-0.93-0.07
			c-0.33,0-0.73,0-1.13,0.07l-43.4,5.07c-0.44,0.04-0.89,0.09-1.34,0.15c-0.64,0.11-1.28,0.27-1.88,0.52
			c-0.42,0.18-0.82,0.42-1.19,0.73c-0.45,0.33-0.81,0.73-1.12,1.18c-0.66,0.96-1.07,2.11-1.42,3.24c-0.05,0.15-0.09,0.3-0.14,0.46
			c-0.08,0.28-0.16,0.55-0.25,0.83c-2.44,8.23-4.89,16.45-7.33,24.68c-5.15,17.34-10.31,34.69-15.46,52.03
			c-2.58,8.67-5.15,17.34-7.73,26.02c-0.45,1.5-1.17,3.35-1.85,5.32c-0.75,2.18-1.46,4.5-1.7,6.64c-0.47,4.01,0.73,7.34,6.41,7.88
			c0.18,0.03,0.36,0.04,0.55,0.05c0.07,0,0.14,0.01,0.21,0.01c0.17,0,0.33,0.01,0.51,0.01c0.48,0,0.97-0.03,1.47-0.07
			c0.26-0.02,0.51-0.04,0.77-0.07l11.76-1.45l20.32-2.54c1.14-0.13,2.4-0.27,3.61-0.27c1.83,0,3.6,0.31,4.94,1.26
			c1.12,0.78,1.95,2,2.29,3.88c0.04,0.25,0.07,0.51,0.09,0.77c0.06,0.71,0.03,1.44-0.1,2.17c-0.11,0.69-0.29,1.38-0.53,2.05
			l-17.25,48.08l-7.47,20.84c-1.4,3.94-2.87,7.95-3.94,12.02c-0.23,0.84,0.12,1.5,0.67,1.84c0.24,0.14,0.52,0.23,0.82,0.23
			c0.01,0,0.03,0,0.04,0c0.11,0,0.22-0.01,0.34-0.04c0.01,0,0.01,0,0.02,0c0.13-0.03,0.26-0.08,0.39-0.14
			c0.02-0.01,0.03-0.02,0.05-0.03c0.08-0.04,0.16-0.1,0.23-0.15c0.16-0.12,0.31-0.26,0.44-0.45l81.85-110.72
			c0.01-0.02,0.03-0.04,0.04-0.06c0.87-1.22,1.79-2.5,2.63-3.82c0.13-0.22,0.26-0.44,0.38-0.66c0.01-0.03,0.03-0.07,0.05-0.09
			c0.07-0.12,0.13-0.24,0.2-0.37c0.28-0.59,0.56-1.21,0.79-1.84c0.2-0.51,0.34-0.99,0.46-1.48c0.08-0.35,0.15-0.71,0.2-1.08
			C241.51-239.43,241.32-240.92,240.64-242.15z"/>
		<path class="st1" d="M368.64-183.65c-0.15-0.27-0.32-0.52-0.5-0.75c-1.29-1.62-3.18-2.03-5.22-2.03c-0.42,0-0.85,0.02-1.28,0.04
			c-0.62,0.04-1.23,0.11-1.84,0.18c-5.91,0.7-11.81,1.4-17.72,2.1c-4.34,0.52-8.69,1.05-13.01,1.56c-0.59,0.07-1.18,0.12-1.79,0.16
			c-0.49,0.03-0.98,0.06-1.46,0.06c-1.21,0-2.39-0.14-3.42-0.52c-1.63-0.61-2.89-1.85-3.35-4.23c-0.27-1.54-0.07-3.14,0.47-4.67
			l14.37-41.44l12.24-35.38c1.43-4.12,2.46-9.49-0.1-12.06c-0.72-0.71-1.72-1.2-3.07-1.39c-0.33-0.07-0.6-0.07-0.93-0.07
			c-0.33,0-0.73,0-1.13,0.07l-43.4,5.07c-0.44,0.04-0.89,0.09-1.34,0.15c-0.64,0.11-1.28,0.27-1.88,0.52
			c-0.42,0.18-0.82,0.42-1.19,0.73c-0.45,0.33-0.81,0.73-1.12,1.18c-0.66,0.96-1.07,2.11-1.42,3.24c-0.05,0.15-0.09,0.3-0.14,0.46
			c-0.08,0.28-0.16,0.55-0.25,0.83c-2.44,8.23-4.89,16.45-7.33,24.68c-5.15,17.34-10.31,34.69-15.46,52.03
			c-2.58,8.67-5.15,17.34-7.73,26.02c-0.45,1.5-1.17,3.35-1.85,5.32c-0.75,2.18-1.46,4.5-1.7,6.64c-0.47,4.01,0.73,7.34,6.41,7.88
			c0.18,0.03,0.36,0.04,0.55,0.05c0.07,0,0.14,0.01,0.21,0.01c0.17,0,0.33,0.01,0.51,0.01c0.48,0,0.97-0.03,1.47-0.07
			c0.26-0.02,0.51-0.04,0.77-0.07l11.76-1.45l20.32-2.54c1.14-0.13,2.4-0.27,3.61-0.27c1.83,0,3.6,0.31,4.94,1.26
			c1.12,0.78,1.95,2,2.29,3.88c0.04,0.25,0.07,0.51,0.09,0.77c0.06,0.71,0.03,1.44-0.1,2.17c-0.11,0.69-0.29,1.38-0.53,2.05
			l-17.25,48.08l-7.47,20.84c-1.4,3.94-2.87,7.95-3.94,12.02c-0.23,0.84,0.12,1.5,0.67,1.84c0.24,0.14,0.52,0.23,0.82,0.23
			c0.01,0,0.03,0,0.04,0c0.11,0,0.22-0.01,0.34-0.04c0.01,0,0.01,0,0.02,0c0.13-0.03,0.26-0.08,0.39-0.14
			c0.02-0.01,0.03-0.02,0.05-0.03c0.08-0.04,0.16-0.1,0.23-0.15c0.16-0.12,0.31-0.26,0.44-0.45l81.85-110.72
			c0.01-0.02,0.03-0.04,0.04-0.06c0.87-1.22,1.79-2.5,2.63-3.82c0.13-0.22,0.26-0.44,0.38-0.66c0.01-0.03,0.03-0.07,0.05-0.09
			c0.07-0.12,0.13-0.24,0.2-0.37c0.28-0.59,0.56-1.21,0.79-1.84c0.2-0.51,0.34-0.99,0.46-1.48c0.08-0.35,0.15-0.71,0.2-1.08
			C369.51-180.93,369.32-182.42,368.64-183.65z"/>
		<path class="st1" d="M496.64-125.15c-0.15-0.27-0.32-0.52-0.5-0.75c-1.29-1.62-3.18-2.03-5.22-2.03c-0.42,0-0.85,0.02-1.28,0.04
			c-0.62,0.04-1.23,0.11-1.84,0.18c-5.91,0.7-11.81,1.4-17.72,2.1c-4.34,0.52-8.69,1.05-13.01,1.56c-0.59,0.07-1.18,0.12-1.79,0.16
			c-0.49,0.03-0.98,0.06-1.46,0.06c-1.21,0-2.39-0.14-3.42-0.52c-1.63-0.61-2.89-1.85-3.35-4.23c-0.27-1.54-0.07-3.14,0.47-4.67
			l14.37-41.44l12.24-35.38c1.43-4.12,2.46-9.49-0.1-12.06c-0.72-0.71-1.72-1.2-3.07-1.39c-0.33-0.07-0.6-0.07-0.93-0.07
			c-0.33,0-0.73,0-1.13,0.07l-43.4,5.07c-0.44,0.04-0.89,0.09-1.34,0.15c-0.64,0.11-1.28,0.27-1.88,0.52
			c-0.42,0.18-0.82,0.42-1.19,0.73c-0.45,0.33-0.81,0.73-1.12,1.18c-0.66,0.96-1.07,2.11-1.42,3.24c-0.05,0.15-0.09,0.3-0.14,0.46
			c-0.08,0.28-0.16,0.55-0.25,0.83c-2.44,8.23-4.89,16.45-7.33,24.68c-5.15,17.34-10.31,34.69-15.46,52.03
			c-2.58,8.67-5.15,17.34-7.73,26.02c-0.45,1.5-1.17,3.35-1.85,5.32c-0.75,2.18-1.46,4.5-1.7,6.64c-0.47,4.01,0.73,7.34,6.41,7.88
			c0.18,0.03,0.36,0.04,0.55,0.05c0.07,0,0.14,0.01,0.21,0.01c0.17,0,0.33,0.01,0.51,0.01c0.48,0,0.97-0.03,1.47-0.07
			c0.26-0.02,0.51-0.04,0.77-0.07l11.76-1.45l20.32-2.54c1.14-0.13,2.4-0.27,3.61-0.27c1.83,0,3.6,0.31,4.94,1.26
			c1.12,0.78,1.95,2,2.29,3.88c0.04,0.25,0.07,0.51,0.09,0.77c0.06,0.71,0.03,1.44-0.1,2.17c-0.11,0.69-0.29,1.38-0.53,2.05
			l-17.25,48.08l-7.47,20.84c-1.4,3.94-2.87,7.95-3.94,12.02c-0.23,0.84,0.12,1.5,0.67,1.84c0.24,0.14,0.52,0.23,0.82,0.23
			c0.01,0,0.03,0,0.04,0c0.11,0,0.22-0.01,0.34-0.04c0.01,0,0.01,0,0.02,0c0.13-0.03,0.26-0.08,0.39-0.14
			c0.02-0.01,0.03-0.02,0.05-0.03c0.08-0.04,0.16-0.1,0.23-0.15c0.16-0.12,0.31-0.26,0.44-0.45l81.85-110.72
			c0.01-0.02,0.03-0.04,0.04-0.06c0.87-1.22,1.79-2.5,2.63-3.82c0.13-0.22,0.26-0.44,0.38-0.66c0.01-0.03,0.03-0.07,0.05-0.09
			c0.07-0.12,0.13-0.24,0.2-0.37c0.28-0.59,0.56-1.21,0.79-1.84c0.2-0.51,0.34-0.99,0.46-1.48c0.08-0.35,0.15-0.71,0.2-1.08
			C497.51-122.43,497.32-123.92,496.64-125.15z"/>
		<path class="st1" d="M624.64-300.65c-0.15-0.27-0.32-0.52-0.5-0.75c-1.29-1.62-3.18-2.03-5.22-2.03c-0.42,0-0.85,0.02-1.28,0.04
			c-0.62,0.04-1.23,0.11-1.84,0.18c-5.91,0.7-11.81,1.4-17.72,2.1c-4.34,0.52-8.69,1.05-13.01,1.56c-0.59,0.07-1.18,0.12-1.79,0.16
			c-0.49,0.03-0.98,0.06-1.46,0.06c-1.21,0-2.39-0.14-3.42-0.52c-1.63-0.61-2.89-1.85-3.35-4.23c-0.27-1.54-0.07-3.14,0.47-4.67
			l14.37-41.44l12.24-35.38c1.43-4.12,2.46-9.49-0.1-12.06c-0.72-0.71-1.72-1.2-3.07-1.39c-0.33-0.07-0.6-0.07-0.93-0.07
			c-0.33,0-0.73,0-1.13,0.07l-43.4,5.07c-0.44,0.04-0.89,0.09-1.34,0.15c-0.64,0.11-1.28,0.27-1.88,0.52
			c-0.42,0.18-0.82,0.42-1.19,0.73c-0.45,0.33-0.81,0.73-1.12,1.18c-0.66,0.96-1.07,2.11-1.42,3.24c-0.05,0.15-0.09,0.3-0.14,0.46
			c-0.08,0.28-0.16,0.55-0.25,0.83c-2.44,8.23-4.89,16.45-7.33,24.68c-5.15,17.34-10.31,34.69-15.46,52.03
			c-2.58,8.67-5.15,17.34-7.73,26.02c-0.45,1.5-1.17,3.35-1.85,5.32c-0.75,2.18-1.46,4.5-1.7,6.64c-0.47,4.01,0.73,7.34,6.41,7.88
			c0.18,0.03,0.36,0.04,0.55,0.05c0.07,0,0.14,0.01,0.21,0.01c0.17,0,0.33,0.01,0.51,0.01c0.48,0,0.97-0.03,1.47-0.07
			c0.26-0.02,0.51-0.04,0.77-0.07l11.76-1.45l20.32-2.54c1.14-0.13,2.4-0.27,3.61-0.27c1.83,0,3.6,0.31,4.94,1.26
			c1.12,0.78,1.95,2,2.29,3.88c0.04,0.25,0.07,0.51,0.09,0.77c0.06,0.71,0.03,1.44-0.1,2.17c-0.11,0.69-0.29,1.38-0.53,2.05
			l-17.25,48.08l-7.47,20.84c-1.4,3.94-2.87,7.95-3.94,12.02c-0.23,0.84,0.12,1.5,0.67,1.84c0.24,0.14,0.52,0.23,0.82,0.23
			c0.01,0,0.03,0,0.04,0c0.11,0,0.22-0.01,0.34-0.04c0.01,0,0.01,0,0.02,0c0.13-0.03,0.26-0.08,0.39-0.14
			c0.02-0.01,0.03-0.02,0.05-0.03c0.08-0.04,0.16-0.1,0.23-0.15c0.16-0.12,0.31-0.26,0.44-0.45l81.85-110.72
			c0.01-0.02,0.03-0.04,0.04-0.06c0.87-1.22,1.79-2.5,2.63-3.82c0.13-0.22,0.26-0.44,0.38-0.66c0.01-0.03,0.03-0.07,0.05-0.09
			c0.07-0.12,0.13-0.24,0.2-0.37c0.28-0.59,0.56-1.21,0.79-1.84c0.2-0.51,0.34-0.99,0.46-1.48c0.08-0.35,0.15-0.71,0.2-1.08
			C625.51-297.93,625.32-299.42,624.64-300.65z"/>
	</g>
</pattern>
<rect class="st2" width="1920" height="1080"/>
</svg>
