<?xml version="1.0" encoding="utf-8"?>
<!-- Generator: Adobe Illustrator 30.3.0, SVG Export Plug-In . SVG Version: 9.03 Build 0)  -->
<svg version="1.1" id="Layer_1" xmlns="http://www.w3.org/2000/svg" xmlns:xlink="http://www.w3.org/1999/xlink" x="0px" y="0px"
	 viewBox="0 0 491.83 111.42" style="enable-background:new 0 0 491.83 111.42;" xml:space="preserve">
<style type="text/css">
	.st0{fill:#FFFFFF;}
</style>
<g>
	<g>
		<path class="st0" d="M0.04,60.59c0.23-2.05,1.34-4.34,1.82-5.9c1.32-4.28,2.63-8.56,3.95-12.83c2.63-8.56,5.26-17.11,7.89-25.67
			c1.29-4.19,2.58-8.39,3.87-12.58c0.27-0.89,0.59-1.84,1.35-2.35c0.65-0.44,1.49-0.46,2.27-0.46l22.17-0.05
			c0.35,0,0.69,0.02,1.03,0.11c3.17,0.8,2.57,4.48,1.63,7.07L32.45,45.6c-0.27,0.75-0.37,1.56-0.23,2.35c0.48,2.72,3,2.91,5.1,2.9
			c5.23-0.02,10.46-0.04,15.7-0.07c1.69-0.01,3.6,0.06,4.51,1.82c0.35,0.67,0.44,1.44,0.35,2.19c-0.23,1.79-1.34,3.18-2.43,4.52
			l-41.79,51.77c-0.61,0.76-1.8,0.12-1.53-0.82c0.56-2,1.29-3.96,2.02-5.91l12.63-33.75c0.3-0.8,0.42-1.67,0.27-2.52
			c-0.51-2.92-3.26-3.13-5.54-3.11L5.12,65.14c-0.61,0.01-1.21-0.04-1.81-0.16C0.43,64.37-0.19,62.6,0.04,60.59z"/>
		<path class="st0" d="M465.53,59.98c0.04-0.39,0.11-0.78,0.11-1.17c0-16.44-0.02-32.89,0.01-49.33c0-1.87-0.06-3.87,0.55-5.57
			c1.08-3.02,3.93-3.72,6.71-3.79c6.3-0.17,12.61,0.04,18.92-0.12c-0.09,10.97-0.12,21.94-0.12,32.91c-0.01,22.26,0,44.52,0,66.78
			c0,2.43,0,2.44-2.43,2.45c-7.66,0.01-15.32-0.02-22.98,0.04c-1.39,0.01-2.23-0.38-2.94-1.65c-7.35-13.15-14.77-26.26-22.17-39.38
			c-3.49-6.19-6.98-12.39-10.84-18.57c-0.04,0.52-0.13,1.03-0.13,1.55c-0.01,16.62,0,33.24,0,49.86c0,5.25-2.77,8.13-7.99,8.18
			c-5.38,0.05-10.76-0.03-16.14,0.05c-1.56,0.02-1.97-0.53-1.97-2.07c0.03-32.65,0.03-65.3-0.01-97.95c0-1.3,0.31-1.76,1.66-1.75
			c8.13,0.05,16.26,0.03,24.39-0.02c1.11-0.01,1.65,0.46,2.17,1.38c10.63,18.94,21.29,37.85,31.95,56.77
			c0.28,0.5,0.59,0.98,0.88,1.47C465.35,60.03,465.34,60.03,465.53,59.98z"/>
		<path class="st0" d="M263.03,103.94c-8.77,0.01-17.55,0.06-26.32,0.01c-4.29-0.02-8.49-0.64-12.52-2.23
			c-6.86-2.72-10.78-7.97-12.26-15.08c-0.71-3.39-1.01-6.93-1.03-10.4c-0.11-16.15-0.08-32.3-0.03-48.44
			c0.01-5.26,0.82-10.42,3.15-15.19c3.44-7.03,9.54-10.21,16.81-11.33c3.33-0.51,6.75-0.67,10.13-0.68
			c16.9-0.08,33.81-0.06,50.71-0.08c5.39-0.01,8.09,2.73,8.08,8.19c0,3.5-0.07,7.01,0.03,10.51c0.05,1.58-0.46,2.02-2,2.02
			c-17.25-0.03-34.51,0-51.76,0.03c-0.93,0-1.87,0.06-2.79,0.2c-3.7,0.56-6.16,3.18-6.21,7c-0.13,9.56-0.14,19.11-0.15,28.67
			c-0.01,6.59-0.02,13.18,0.13,19.76c0.09,3.68,2.45,6.19,6.09,6.26c9.65,0.19,19.27-0.01,28.91-0.16c1.33-0.02,1.85-0.74,1.83-2.18
			c-0.07-5.76-0.06-11.52,0-17.28c0.01-1.32-0.39-1.76-1.7-1.74c-4.8,0.07-9.59,0.03-14.39,0.04c-2.52,0-2.52,0-2.52-2.64
			c0-2.43,0.14-4.88-0.03-7.3c-0.36-5.28,3.67-7.81,7.75-7.8c10.76,0.03,21.52-0.01,32.29-0.02c4.68,0,4.68,0,4.68,4.72
			c0,15.55,0,31.11,0,46.66c0,5.64-2.67,8.42-8.28,8.45C282.1,103.95,272.57,103.93,263.03,103.94z"/>
		<path class="st0" d="M338.31,61.14c0,6.95,0,13.63,0,20.56c0.78,0,1.46,0,2.13,0c16.43-0.02,32.87-0.01,49.3-0.09
			c1.7-0.01,2.19,0.47,2.13,2.18c-0.13,3.62-0.03,7.24-0.04,10.86c-0.01,4.68-2.35,7.28-6.94,7.7c-0.46,0.04-0.93,0.03-1.4,0.03
			c-21.06,0.02-42.11,0.04-63.17,0.06c-3.38,0-6.32-0.89-7.66-4.4c-0.47-1.24-0.63-2.66-0.64-4c-0.03-28.38-0.01-56.75-0.04-85.13
			c-0.01-5.32,2.68-8.51,8.44-8.49c21.23,0.06,42.46-0.01,63.69-0.03c5.01,0,7.72,2.73,7.72,7.77c0,3.62-0.07,7.24,0.03,10.86
			c0.05,1.63-0.47,2.14-2.09,2.13c-16.38-0.04-32.75,0-49.13,0.02c-2.45,0-2.45,0-2.45,2.55c0,4.87,0.06,9.74-0.04,14.6
			c-0.03,1.64,0.45,2.12,2.07,2.11c12.69-0.07,25.38-0.03,38.07-0.11c1.65-0.01,2.23,0.4,2.2,2.16c-0.11,5.58-0.08,11.16-0.01,16.74
			c0.02,1.48-0.42,1.91-1.88,1.91c-12.87-0.04-25.73-0.01-38.6,0.01C339.5,61.14,338.99,61.14,338.31,61.14z"/>
		<path class="st0" d="M158.89,0.61c10.65-0.01,21.29-0.02,31.94-0.03c5.12,0,7.91,2.81,7.92,8.01c0.01,3.44,0,6.89,0,10.33
			c0,2.38,0,2.39-2.3,2.39c-16.32,0.02-32.64,0.03-48.96,0.05c-2.34,0-2.34,0.01-2.34,2.32c0,4.81,0,9.62,0,14.43
			c0,2.47,0,2.48,2.36,2.47c12.52-0.01,25.03,0,37.55-0.07c1.66-0.01,2.24,0.44,2.21,2.18c-0.1,5.58-0.08,11.16-0.01,16.74
			c0.02,1.53-0.54,1.88-1.94,1.88c-12.69-0.03-25.38,0.03-38.08-0.03c-1.73-0.01-2.17,0.53-2.14,2.22c0.1,5.4,0.1,10.81,0,16.21
			c-0.03,1.7,0.46,2.22,2.16,2.21c16.38-0.08,32.75-0.07,49.13-0.09c2.34,0,2.34-0.01,2.34,2.3c0,3.5,0.02,7.01,0,10.51
			c-0.02,5.02-2.72,7.81-7.7,7.92c-2.57,0.06-5.15,0.01-7.72,0.02c-18.72,0.02-37.43,0.04-56.15,0.06c-4.36,0-6.99-1.71-7.97-5.24
			c-0.2-0.73-0.25-1.52-0.25-2.28c-0.01-28.97-0.01-57.94-0.01-86.92c0-4.61,2.87-7.54,7.47-7.55
			C137.25,0.62,148.07,0.62,158.89,0.61z"/>
		<path class="st0" d="M85.73,71.14c7.59,10.14,15.25,20.4,23.19,31.01c-1.03,0.07-1.62,0.16-2.22,0.16
			c-9.36,0.02-18.72,0-28.07,0.06c-1.21,0.01-1.9-0.41-2.56-1.39c-6.99-10.37-14-20.73-21.07-31.04c-0.93-1.35-0.96-2.24,0.12-3.53
			c3.87-4.61,7.56-9.37,11.44-13.96c0.66-0.78,1.91-1.19,2.96-1.48c1.62-0.45,3.37-0.46,4.96-0.99c2.63-0.88,4.47-2.77,5.38-5.46
			c1.1-3.26,1.06-6.56-0.11-9.77c-1.46-4.02-5.42-6.5-10.14-6.51c-7.6,0-15.21,0.02-22.81,0.02c-0.68,0-1.36-0.06-2.38-0.11
			c0.77-2.18,1.45-4.11,2.13-6.03c1.99-5.57,3.99-11.12,5.96-16.7c0.99-2.81,2.86-4.48,5.82-4.59C68.4,0.48,78.48,0.5,87.94,4.74
			c10.95,4.9,16.8,13.75,18.39,25.61c0.91,6.77,0.73,13.51-1.45,20.05c-2.99,8.97-8.95,15.26-17.23,19.43
			c-0.57,0.29-1.14,0.59-1.7,0.89C85.91,70.74,85.9,70.82,85.73,71.14z"/>
	</g>
</g>
</svg>
