<?xml version="1.0" encoding="utf-8"?>
<!-- Generator: Adobe Illustrator 30.3.0, SVG Export Plug-In . SVG Version: 9.03 Build 0)  -->
<svg version="1.1" id="Layer_1" xmlns="http://www.w3.org/2000/svg" xmlns:xlink="http://www.w3.org/1999/xlink" x="0px" y="0px"
	 viewBox="0 0 267.07 301.5" style="enable-background:new 0 0 267.07 301.5;" xml:space="preserve">
<style type="text/css">
	.st0{fill-rule:evenodd;clip-rule:evenodd;fill:#EE4D2D;}
</style>
<path class="st0" d="M182.48,225.64c-1.75,14.48-10.53,26.08-24.12,31.88c-7.57,3.23-17.73,4.98-25.77,4.43
	c-12.55-0.48-24.34-3.53-35.2-9.11c-3.88-1.99-9.67-5.98-14.11-9.7c-1.13-0.94-1.26-1.55-0.51-2.6c0.4-0.61,1.14-1.7,2.78-4.1
	c2.38-3.48,2.67-3.92,2.94-4.33c0.76-1.17,2-1.27,3.21-0.31c0.13,0.1,0.13,0.1,0.22,0.18c0.2,0.15,0.2,0.15,0.67,0.52
	c0.48,0.37,0.76,0.59,0.87,0.68c11.72,9.18,25.37,14.47,39.15,15c19.17-0.26,32.96-8.88,35.43-22.12
	c2.72-14.57-8.72-27.15-31.09-34.16c-7-2.19-24.68-9.27-27.94-11.18c-15.31-8.98-22.47-20.75-21.45-35.29
	c1.56-20.15,20.26-35.18,43.9-35.28c10.57-0.02,21.12,2.17,31.25,6.44c3.59,1.51,9.99,5,12.2,6.65c1.27,0.94,1.53,2.03,0.8,3.2
	c-0.41,0.68-1.08,1.76-2.5,4.02l-0.02,0.02c-1.87,2.97-1.93,3.06-2.36,3.76c-0.74,1.13-1.61,1.23-2.95,0.39
	c-10.84-7.28-22.86-10.95-36.08-11.21c-16.46,0.33-28.79,10.12-29.6,23.46c-0.22,12.05,8.82,20.85,28.35,27.56
	C170.17,187.17,185.34,202.1,182.48,225.64 M133.54,17.6c25.8,0,46.83,24.49,47.82,55.14H85.72C86.71,42.09,107.74,17.6,133.54,17.6
	 M267.07,78.5c0-3.18-2.56-5.76-5.72-5.76h-61.99C197.84,32.27,168.95,0,133.54,0c-35.41,0-64.3,32.27-65.82,72.74l-62.07,0
	c-3.11,0.06-5.62,2.61-5.62,5.76c0,0.15,0.01,0.3,0.02,0.45H0l8.85,195.06c0,0.54,0.02,1.09,0.06,1.64
	c0.01,0.12,0.02,0.25,0.03,0.37l0.02,0.41l0.02,0.02c1.34,13.57,11.2,24.51,24.59,25.01l0.03,0.03h196.91c0.09,0,0.19,0,0.28,0
	c0.09,0,0.19,0,0.28,0h0.42l0.01-0.01c13.63-0.37,24.67-11.46,25.83-25.2l0.01-0.01l0.01-0.18c0.01-0.14,0.02-0.29,0.03-0.43
	c0.02-0.35,0.04-0.69,0.04-1.03l9.66-195.83h-0.01C267.07,78.7,267.07,78.6,267.07,78.5"/>
</svg>
