<svg width="110" height="38" viewBox="0 0 110 38" fill="none" xmlns="http://www.w3.org/2000/svg">
<g clip-path="url(#clip0_904_467)">
<path d="M110 35.4808C110 36.8715 108.859 38 107.452 38H2.54487C1.14011 38 0 36.8715 0 35.4808V2.51846C0 1.13005 1.14011 0 2.54487 0H107.452C108.859 0 110 1.13005 110 2.51846V35.4808Z" fill="white"/>
<path d="M110 35.4808C110 36.8715 108.859 38 107.452 38H2.54487C1.14011 38 0 36.8715 0 35.4808V2.51846C0 1.13005 1.14011 0 2.54487 0H107.452C108.859 0 110 1.13005 110 2.51846V35.4808Z" fill="white"/>
<path d="M105.48 2.02393H4.51909C3.15857 2.02393 2.04407 3.12484 2.04407 4.46955V12.5823H107.954V4.46955C107.954 3.12484 106.843 2.02393 105.48 2.02393Z" fill="#D61C24"/>
<path d="M2.04382 24.2802H107.954V13.718H2.04382V24.2802Z" fill="#006AB4"/>
<path d="M2.04382 33.5307C2.04382 34.8754 3.15832 35.9786 4.51885 35.9786H105.478C106.843 35.9786 107.954 34.8754 107.954 33.5307V25.4187H2.04382V33.5307Z" fill="#FFCF21"/>
<path d="M92.1858 9.14638L91.7815 9.00992C84.0258 6.43243 70.2777 3.67554 54.9557 3.67554C39.6259 3.67554 25.8779 6.43243 18.1276 9.00992C15.7248 9.78194 14.795 11.513 14.7313 12.7313L14.7236 25.1534L14.7291 25.2607C14.7951 26.5065 15.728 28.2391 18.1363 29.0112C25.8904 31.5902 39.633 34.3425 54.9558 34.3425C70.274 34.3425 84.0205 31.5887 91.7831 29.0073L92.203 28.8686C94.1635 28.0996 95.2865 26.6453 95.2865 24.8789V13.143C95.2865 11.3697 94.1633 9.9161 92.1858 9.14638Z" fill="white"/>
<path d="M91.4461 11.0398C91.3693 11.0145 91.2613 10.98 91.1248 10.9332C84.4665 8.72068 70.907 5.70312 54.9556 5.70312C39.0018 5.70312 25.4431 8.72068 18.7755 10.9363C17.0875 11.4768 16.7996 12.5432 16.7802 12.866V19.0084V25.1539C16.7995 25.4767 17.0875 26.54 18.7755 27.0851C25.4431 29.2992 39.0018 32.3129 54.9556 32.3129C70.907 32.3129 84.4665 29.2992 91.1248 27.0851C91.2614 27.0414 91.3693 27.0016 91.4461 26.977C92.0367 26.747 93.228 26.1659 93.228 24.8787V19.0084V13.1427C93.228 11.8486 92.0367 11.2706 91.4461 11.0398ZM91.1217 20.7917V23.0173V23.4144C91.1327 24.3037 90.7786 25.157 89.2962 25.5112C84.5231 26.5952 70.9272 29.126 55.0076 29.126C39.0817 29.126 25.4843 26.5952 20.7112 25.5112C19.2303 25.157 18.8857 24.0124 18.8857 23.4144V23.0173V20.7917V19.0084V17.2282V15.0026V14.6025C18.8857 14.0083 19.2303 12.8598 20.7112 12.5057C25.4843 11.4193 39.0817 8.89471 55.0076 8.89471C70.9272 8.89471 84.5231 11.4193 89.2962 12.5057C90.7786 12.8598 91.1325 13.7147 91.1217 14.6025V15.0026V17.2282V19.0084V20.7917Z" fill="#D61C24"/>
<path d="M89.2967 12.5057C84.5236 11.4209 70.9268 8.89478 55.0072 8.89478C39.0806 8.89478 25.4839 11.4209 20.71 12.5057C19.2307 12.8607 18.8854 14.0076 18.8854 14.6033V15.0027V17.2291V19.0085V20.7917V23.0173V23.4144C18.8854 24.0124 19.2307 25.1571 20.71 25.5112C25.4839 26.5945 39.0806 29.1253 55.0072 29.1253C70.9268 29.1253 84.5236 26.5945 89.2967 25.5112C90.7783 25.1571 91.1322 24.3045 91.1221 23.4144V23.0173V20.7917V19.0085V17.2291V15.0027V14.6033C91.1331 13.7147 90.7783 12.8607 89.2967 12.5057Z" fill="white"/>
<path d="M87.9415 22.4963C87.9003 22.4963 87.8577 22.5048 87.8196 22.5178V22.4856L87.6986 22.5822C87.3494 22.8605 87.0032 23.0637 86.6757 23.1856C86.6486 23.1986 86.6253 23.2017 86.6011 23.2124L86.5835 23.2163C86.551 23.2279 86.5246 23.2378 86.5004 23.2462L86.4828 23.2493C86.4564 23.2562 86.4346 23.2647 86.4082 23.2677L86.3779 23.2753C86.3603 23.2823 86.3376 23.286 86.3211 23.2869L86.2855 23.2938C86.2087 23.3075 86.1381 23.3123 86.069 23.3123C85.6235 23.3123 85.549 23.0033 85.5389 22.9466C85.5118 22.6974 85.584 22.3271 85.7508 21.8373L85.7842 21.7545C85.8161 21.6602 85.8539 21.5559 85.8999 21.4217C85.9481 21.3029 86 21.1695 86.0574 21.0292L86.6892 19.3725L86.8507 19.3664L86.8771 19.3688L87.6307 19.3642L88.205 17.8217H87.2473L88.5659 14.3901H86.6955L85.4257 17.8217H84.5161L83.9224 19.3642H84.8863L84.8329 19.5022C84.8263 19.5152 84.2446 21.0179 83.9543 21.6856C83.8976 21.829 83.8239 21.9762 83.7363 22.128C83.55 22.4507 82.999 23.2128 81.9722 23.2941C81.8745 23.3032 81.7735 23.3078 81.6835 23.3078C80.5309 23.3078 80.2655 22.7826 80.1825 22.6101L80.1804 22.6016L80.2666 22.5457C80.2891 22.535 80.3109 22.5234 80.3296 22.5158C80.8822 22.2022 81.434 21.8794 81.7258 21.5973C81.8111 21.5291 81.8941 21.457 81.978 21.378C82.2613 21.1074 82.5027 20.8054 82.6889 20.4742C82.7 20.4611 83.6288 19.0359 82.6291 18.165C82.6274 18.1596 82.2108 17.8215 81.5278 17.8215C81.1708 17.8215 80.8045 17.9105 80.4412 18.0891C80.4215 18.0945 80.2417 18.1926 80.0004 18.3705L79.815 18.5176C79.7996 18.5331 79.7778 18.5453 79.7606 18.5629C79.7287 18.5943 79.6907 18.6265 79.6473 18.6648L79.5844 18.7208C79.5646 18.743 79.5442 18.763 79.5215 18.7814L79.4982 18.8113C78.8501 19.4545 77.8342 20.8069 78.2603 22.6016L78.2734 22.6545C77.585 23.0846 77.2723 23.2341 76.8361 23.2341C76.7593 23.2341 76.6777 23.228 76.5838 23.2219C76.4472 23.2089 76.3479 23.1575 76.2796 23.0701C76.1197 22.8608 76.1897 22.4967 76.1919 22.4859L76.1939 22.4629C76.2005 22.4553 76.2005 22.446 76.2027 22.4346C76.2116 22.4192 76.7576 20.8254 77.2947 20.2465L77.318 20.222L77.1621 19.1755L77.0954 19.1779C77.0371 19.184 76.9634 19.1879 76.882 19.1879C76.4536 19.1879 75.8793 19.1067 75.5517 18.7003L75.4934 18.6244L76.5575 17.6078L75.8924 17.5849C75.8748 17.5849 75.4329 17.5849 75.1077 17.3181L74.6979 16.9547L73.6191 18.4696L73.6279 18.4995C73.6979 18.7678 73.6629 19.4532 73.094 20.3617C72.3916 21.3875 71.7559 22.0552 71.1451 22.4148C70.8541 22.575 70.6453 22.6478 70.4777 22.6478H70.4458C70.3488 22.6418 70.3006 22.588 70.2788 22.5604C70.2291 22.4861 70.2291 22.3902 70.2744 22.2576L71.9578 17.8217H70.702C70.203 17.8217 70.0385 18.1154 70.0175 18.1522L69.9546 18.281L69.8622 18.179C69.6092 17.9061 69.2452 17.8516 68.9914 17.8516H68.934C68.2727 17.9015 67.277 18.2227 66.2595 19.4609C66.2551 19.4669 65.8156 19.9009 65.4065 20.7312L65.3867 20.7672C64.9925 21.4404 64.9079 22.1135 64.8955 22.1886L64.8888 22.2431L63.8845 22.7222C63.8845 22.7222 63.8474 22.7413 63.7968 22.7598C63.7433 22.7828 63.7059 22.7889 63.6672 22.8035L63.6518 22.8065C63.6199 22.8157 63.5858 22.8272 63.5392 22.8372C63.3823 22.861 63.2846 22.8187 63.2225 22.7253C63.1052 22.5528 63.2 22.2668 63.2291 22.1832L64.058 20.0182C64.356 19.214 64.3863 18.5945 64.1427 18.2373C63.9354 17.9291 63.587 17.8731 63.4131 17.8654V17.8533L63.3425 17.8654H63.3177L63.2811 17.8709C63.2745 17.8733 63.268 17.8754 63.2517 17.8754C62.4212 17.9858 61.5357 18.7563 61.4945 18.7908L61.3828 18.8882L61.341 18.7433C61.3278 18.7049 61.0562 17.8133 60.124 17.8133C60.051 17.8133 59.9641 17.8203 59.8834 17.8318C59.8746 17.8357 58.9164 18.0311 58.2474 18.669L58.0595 18.8491L58.0815 18.5862C58.0815 18.5862 58.1095 18.245 57.917 18.0281C57.6927 17.7789 57.2487 17.7689 56.6271 18.0012C56.6271 18.0012 55.9317 18.2994 55.5258 18.4727L53.6259 19.2486L53.6655 19.3206C53.7772 19.523 53.8703 19.7323 53.9324 19.9332L53.9573 20.0076L55.9535 19.3881L54.0815 24.3928H55.3799L56.1188 24.4043L57.4863 20.9C57.4907 20.8908 57.7618 20.0704 58.3237 20.0704C58.4309 20.0759 58.5021 20.1111 58.5465 20.1762C58.6785 20.3802 58.5311 20.8424 58.4611 21.0004C58.3718 21.2219 57.2442 24.1805 57.1976 24.3093L57.1611 24.4043H57.5461L57.5549 24.3928H58.5762L59.3174 24.4043L60.6834 20.8999C60.6922 20.8908 60.9566 20.0704 61.5239 20.0704C61.6249 20.0758 61.6955 20.1111 61.7419 20.1762C61.877 20.3801 61.7309 20.8424 61.6603 21.0004C61.6308 21.0655 61.5197 21.3622 61.2847 21.9663L61.1791 22.25C61.0814 22.5413 60.9764 22.9783 61.0237 23.4084C61.0413 23.5809 61.0867 23.7412 61.1527 23.8837C61.1703 23.9259 61.1876 23.9581 61.2101 23.998L61.2629 24.0823L61.2673 24.0753C61.3146 24.1397 61.372 24.1896 61.442 24.2379L61.4552 24.2448C61.5025 24.2633 61.6367 24.32 61.8261 24.3537H61.9232C62.0791 24.3537 62.3663 24.3184 63.0431 23.9734L64.9811 22.9952L65.0145 23.1079C65.0998 23.4015 65.5158 24.2556 66.3075 24.3682C66.4232 24.3837 66.5248 24.3928 66.6296 24.3928H66.722C66.9556 24.3928 67.7472 24.3537 68.2331 23.8515L68.4022 23.676L68.4542 23.929C68.4586 23.988 68.5915 24.3928 69.0394 24.3928L69.0743 24.3973C69.0809 24.3973 69.0941 24.3997 69.1038 24.3997C69.1605 24.4012 69.2573 24.4134 69.3731 24.3928C69.7619 24.3537 70.1003 24.1973 70.9184 23.7465C72.1811 23.0534 72.9875 22.0016 73.6409 21.0709C73.6937 21.0003 73.7146 20.9582 73.7146 20.9582L73.9777 20.5948L74.0345 20.5242C74.3248 20.1654 74.5894 19.9814 74.8161 19.9807L74.8359 19.9776C74.9709 19.9776 75.1269 20.0543 75.1331 20.2728C75.1352 20.3249 75.1331 20.4698 74.9747 20.7313C74.9615 20.7473 73.9766 22.4133 74.0853 23.3187C74.1466 23.8515 74.4741 24.1766 75.0857 24.3092L75.2898 24.3537C75.4117 24.3728 75.608 24.3928 75.8626 24.3928C76.4191 24.3928 77.3093 24.2962 78.6023 23.4406L78.6745 23.3862L78.7295 23.4552C79.3488 24.2318 80.2305 24.3928 80.8645 24.3928H81.0306H81.0911H81.1066C81.1175 24.3928 81.1671 24.3974 81.2416 24.3974C81.8633 24.3974 82.6084 24.1589 83.4598 23.6997L83.5482 23.6522L83.5885 23.7465C83.5905 23.748 83.5929 23.7519 83.6016 23.7718C83.7647 24.001 84.1682 24.3928 85.1577 24.3928C85.5241 24.3928 85.8702 24.3483 86.2109 24.2609L86.2677 24.2502L86.2698 24.2541L86.3017 24.245C87.2516 24.0396 88.1426 23.1441 88.3941 22.8735L88.4352 22.8328L88.4018 22.7853C88.393 22.7699 88.1992 22.497 87.9423 22.497M81.3632 19.2357C81.4262 19.2357 81.4812 19.264 81.5146 19.3101C81.5868 19.4235 81.5278 19.5998 81.497 19.675C81.4125 19.9119 81.1586 20.2385 81.05 20.3573L81.0324 20.3803C80.545 20.9147 80.2019 21.1845 80.0172 21.1845C79.9791 21.1845 79.9427 21.1723 79.9086 21.1516C79.891 21.127 79.8683 21.1002 79.8588 21.0657C79.8146 20.9369 79.8868 20.7238 80.0792 20.3918C80.1375 20.2983 80.2524 20.1181 80.2524 20.1181C80.4194 19.8919 80.6172 19.6842 80.8469 19.5101C81.1643 19.2641 81.2963 19.2357 81.3646 19.2357M67.2463 22.8275C67.1803 22.8275 67.1167 22.8114 67.0632 22.7746C67.008 22.7416 66.9297 22.6695 66.8925 22.5185C66.7979 22.1375 66.9972 21.436 67.4071 20.7414C67.7788 20.1058 68.3749 19.4212 68.8111 19.4212C68.8771 19.4212 68.9369 19.4334 68.9974 19.4672C69.1782 19.583 69.2349 19.8575 69.1525 20.273C69.0812 20.641 68.9003 21.0757 68.6496 21.5035C68.2809 22.1436 67.6817 22.8275 67.2463 22.8275Z" fill="#006AB4"/>
<path d="M45.5709 22.6539C45.5421 22.6631 45.4094 22.7061 45.1999 22.7076C45.1911 22.7091 45.175 22.7091 45.1526 22.7091C45.0347 22.7091 44.9509 22.6708 44.905 22.5964C44.8593 22.5182 44.8645 22.4185 44.9226 22.2867L47.9169 14.3901H46.086L44.7154 18.0271L44.6331 18.0011C44.6331 18.0011 44.2427 17.8776 43.6638 17.8776C42.824 17.8776 41.6094 18.1375 40.6074 19.3657C40.5957 19.3772 39.7522 20.3493 39.4859 21.4901C39.483 21.5077 39.4627 21.5936 39.4425 21.7148L39.4383 21.7577C39.4189 21.8896 39.4042 22.0245 39.3956 22.1587L39.391 22.223L38.4954 22.6248C38.4954 22.6248 38.4597 22.6409 38.4131 22.657C38.3495 22.6846 38.3037 22.6976 38.2633 22.7076L38.2477 22.7091C38.2151 22.7213 38.1864 22.7282 38.1507 22.7367C37.9931 22.7605 37.8961 22.7197 37.8294 22.6247C37.7192 22.4599 37.7983 22.1908 37.8401 22.0835L38.6737 19.9116C38.6985 19.8518 39.2969 18.5461 38.5146 17.9704C38.4921 17.9573 38.357 17.8753 38.1436 17.8385L38.1227 17.8346C38.0202 17.8201 37.9093 17.817 37.7921 17.8307H37.7595C37.7502 17.8307 37.7432 17.8307 37.7307 17.8383L37.6966 17.8438C36.8949 17.9488 36.0365 18.7009 35.9387 18.7898L35.8277 18.891L35.785 18.7423C35.7687 18.7039 35.4824 17.8085 34.5611 17.8085L34.4866 17.8077C34.475 17.8077 34.4602 17.8077 34.4447 17.8085L34.3384 17.82C34.2584 17.8307 34.059 17.8706 33.6662 18.0546C33.5118 18.119 33.3791 18.1857 33.2433 18.2616C32.8288 18.4801 32.2452 18.8749 31.5032 19.3771L31.0608 19.6393L30.8459 19.7558L33.7252 12.5232L28.5874 13.4416C28.4508 13.4677 25.3129 14.0749 24.6501 15.8014C24.5958 15.9218 24.1348 17.0442 24.8876 18.1443C24.8876 18.1589 25.5466 19.108 26.8271 19.108C26.8333 19.1104 26.8659 19.1119 26.9125 19.1119C27.1919 19.1119 28.1372 19.0176 28.6013 17.853L28.6401 17.7595H28.5361C28.412 17.748 27.3285 17.6683 27.0988 16.7621C27.0343 16.552 26.9016 15.8068 28.0146 15.2272C28.065 15.2066 29.2726 14.6201 31.1276 14.3188L31.2913 14.2904L31.2339 14.456L29.268 19.2944C29.2548 19.3296 28.2373 22.4859 25.4223 22.8317C25.2663 22.8555 25.122 22.8662 24.9792 22.8662H24.8426L24.557 22.8317C24.2861 22.7665 22.9101 22.3671 22.5779 20.7663L22.5538 20.649L22.4591 20.7257C22.1138 20.9963 21.5356 21.546 21.4781 22.1854C21.4471 22.5695 21.6147 22.9352 21.9795 23.2748C22.7921 24.0262 23.7444 24.4126 24.8255 24.4126H24.831H24.8659H25.1965C25.8407 24.4126 27.1159 24.26 28.4143 23.2288L28.6417 23.0487C28.6688 23.0249 28.6914 23.0096 28.6914 23.0096C29.3899 22.4346 31.1183 21.0109 31.3278 20.8461C31.6786 20.5624 32.3818 20.0871 32.8102 20.0871C32.9352 20.0871 33.0299 20.1216 33.0997 20.1952L33.1191 20.2259C33.2006 20.4053 33.182 20.6399 33.0616 20.9404L31.7317 24.3919H33.0752H33.071H33.7998L35.2892 20.6223C35.2921 20.6162 35.553 20.0749 35.9892 20.0749C36.0218 20.0749 36.0622 20.0773 36.0986 20.0871C36.3959 20.258 36.2267 20.7816 36.1429 20.9994L35.6237 22.3556C35.6237 22.3601 35.5709 22.4599 35.5235 22.6185C35.4328 22.9168 35.3396 23.4918 35.7222 23.9694C35.7851 24.0407 35.855 24.1105 35.9326 24.1764C35.9504 24.197 35.9799 24.2155 36.0086 24.237L36.0218 24.2446C36.0629 24.26 36.205 24.3182 36.3959 24.3527C36.5682 24.3703 36.7242 24.3566 37.4824 23.9732L39.4305 23.0033L39.4607 23.1252C39.6237 23.8651 40.0436 24.2676 40.746 24.368C40.8593 24.3825 40.9603 24.3918 41.0688 24.3918H41.1634C41.3939 24.3918 42.1864 24.3527 42.673 23.8505L42.8235 23.6941L42.8388 23.9172C42.8388 23.9372 42.8753 24.3856 43.4489 24.3856C43.8082 24.3856 44.3212 24.2238 44.8249 23.9532L47.4016 22.7634L47.1385 22.091L45.5709 22.6539ZM41.7113 22.8272C41.6462 22.8272 41.5857 22.8102 41.532 22.7743C41.4746 22.7413 41.3947 22.6693 41.3582 22.5182C41.2658 22.1372 41.4653 21.435 41.8704 20.7404C42.2461 20.1048 42.8444 19.4202 43.2798 19.4202C43.3474 19.4202 43.411 19.4332 43.4638 19.4662C43.6477 19.5827 43.7028 19.8564 43.6222 20.2727C43.5485 20.6399 43.3691 21.0808 43.1184 21.5032C42.749 22.1426 42.1451 22.8272 41.7113 22.8272Z" fill="#006AB4"/>
<path d="M53.7807 20.9425C53.7807 22.8407 52.2688 24.3879 50.4154 24.3879C48.5605 24.3879 47.0471 22.8407 47.0471 20.9425C47.0471 19.0427 48.5605 17.4987 50.4154 17.4987C52.2688 17.4987 53.7807 19.0427 53.7807 20.9425ZM50.4154 16.9866C48.2788 16.9866 46.5442 18.7568 46.5442 20.9425C46.5442 23.1252 48.2788 24.9023 50.4154 24.9023C52.5482 24.9023 54.2859 23.1252 54.2859 20.9425C54.2859 18.7568 52.5482 16.9866 50.4154 16.9866Z" fill="#D61C24"/>
<path d="M52.8629 20.9425C52.8629 22.324 51.7639 23.4448 50.415 23.4448C49.0646 23.4448 47.9656 22.324 47.9656 20.9425C47.9656 19.5609 49.0646 18.4409 50.415 18.4409C51.7639 18.4409 52.8629 19.5609 52.8629 20.9425ZM50.415 17.9226C48.7883 17.9226 47.4603 19.275 47.4603 20.9425C47.4603 22.6053 48.7883 23.9615 50.415 23.9615C52.0456 23.9615 53.3673 22.6053 53.3673 20.9425C53.3673 19.275 52.0456 17.9226 50.415 17.9226Z" fill="#C11D2A"/>
<path d="M51.9662 20.941C51.9662 21.8188 51.2701 22.5272 50.4148 22.5272C49.5595 22.5272 48.8665 21.8188 48.8665 20.941C48.8665 20.0693 49.5595 19.3548 50.4148 19.3548C51.2701 19.3548 51.9662 20.0693 51.9662 20.941ZM50.4148 18.8403C49.2824 18.8403 48.3612 19.7825 48.3612 20.941C48.3612 22.1024 49.2824 23.0454 50.4148 23.0454C51.5502 23.0454 52.4707 22.1024 52.4707 20.941C52.4707 19.7825 51.5502 18.8403 50.4148 18.8403Z" fill="#D61C24"/>
</g>
<defs>
<clipPath id="clip0_904_467">
<rect width="110" height="38" fill="white"/>
</clipPath>
</defs>
</svg>
